%TF.GenerationSoftware,KiCad,Pcbnew,9.0.0*%
%TF.CreationDate,2025-03-09T23:13:35+01:00*%
%TF.ProjectId,hotline,686f746c-696e-4652-9e6b-696361645f70,rev?*%
%TF.SameCoordinates,Original*%
%TF.FileFunction,Copper,L1,Top*%
%TF.FilePolarity,Positive*%
%FSLAX46Y46*%
G04 Gerber Fmt 4.6, Leading zero omitted, Abs format (unit mm)*
G04 Created by KiCad (PCBNEW 9.0.0) date 2025-03-09 23:13:35*
%MOMM*%
%LPD*%
G01*
G04 APERTURE LIST*
G04 Aperture macros list*
%AMRoundRect*
0 Rectangle with rounded corners*
0 $1 Rounding radius*
0 $2 $3 $4 $5 $6 $7 $8 $9 X,Y pos of 4 corners*
0 Add a 4 corners polygon primitive as box body*
4,1,4,$2,$3,$4,$5,$6,$7,$8,$9,$2,$3,0*
0 Add four circle primitives for the rounded corners*
1,1,$1+$1,$2,$3*
1,1,$1+$1,$4,$5*
1,1,$1+$1,$6,$7*
1,1,$1+$1,$8,$9*
0 Add four rect primitives between the rounded corners*
20,1,$1+$1,$2,$3,$4,$5,0*
20,1,$1+$1,$4,$5,$6,$7,0*
20,1,$1+$1,$6,$7,$8,$9,0*
20,1,$1+$1,$8,$9,$2,$3,0*%
%AMFreePoly0*
4,1,23,0.500000,-0.750000,0.000000,-0.750000,0.000000,-0.745722,-0.065263,-0.745722,-0.191342,-0.711940,-0.304381,-0.646677,-0.396677,-0.554381,-0.461940,-0.441342,-0.495722,-0.315263,-0.495722,-0.250000,-0.500000,-0.250000,-0.500000,0.250000,-0.495722,0.250000,-0.495722,0.315263,-0.461940,0.441342,-0.396677,0.554381,-0.304381,0.646677,-0.191342,0.711940,-0.065263,0.745722,0.000000,0.745722,
0.000000,0.750000,0.500000,0.750000,0.500000,-0.750000,0.500000,-0.750000,$1*%
%AMFreePoly1*
4,1,23,0.000000,0.745722,0.065263,0.745722,0.191342,0.711940,0.304381,0.646677,0.396677,0.554381,0.461940,0.441342,0.495722,0.315263,0.495722,0.250000,0.500000,0.250000,0.500000,-0.250000,0.495722,-0.250000,0.495722,-0.315263,0.461940,-0.441342,0.396677,-0.554381,0.304381,-0.646677,0.191342,-0.711940,0.065263,-0.745722,0.000000,-0.745722,0.000000,-0.750000,-0.500000,-0.750000,
-0.500000,0.750000,0.000000,0.750000,0.000000,0.745722,0.000000,0.745722,$1*%
G04 Aperture macros list end*
%TA.AperFunction,EtchedComponent*%
%ADD10C,0.000000*%
%TD*%
%TA.AperFunction,SMDPad,CuDef*%
%ADD11RoundRect,0.237500X-0.237500X0.250000X-0.237500X-0.250000X0.237500X-0.250000X0.237500X0.250000X0*%
%TD*%
%TA.AperFunction,SMDPad,CuDef*%
%ADD12RoundRect,0.237500X-0.250000X-0.237500X0.250000X-0.237500X0.250000X0.237500X-0.250000X0.237500X0*%
%TD*%
%TA.AperFunction,ComponentPad*%
%ADD13C,3.500000*%
%TD*%
%TA.AperFunction,SMDPad,CuDef*%
%ADD14RoundRect,0.175000X0.175000X0.625000X-0.175000X0.625000X-0.175000X-0.625000X0.175000X-0.625000X0*%
%TD*%
%TA.AperFunction,SMDPad,CuDef*%
%ADD15RoundRect,0.200000X0.200000X0.600000X-0.200000X0.600000X-0.200000X-0.600000X0.200000X-0.600000X0*%
%TD*%
%TA.AperFunction,SMDPad,CuDef*%
%ADD16RoundRect,0.225000X0.225000X0.575000X-0.225000X0.575000X-0.225000X-0.575000X0.225000X-0.575000X0*%
%TD*%
%TA.AperFunction,HeatsinkPad*%
%ADD17O,1.000000X1.700000*%
%TD*%
%TA.AperFunction,SMDPad,CuDef*%
%ADD18RoundRect,0.150000X-0.587500X-0.150000X0.587500X-0.150000X0.587500X0.150000X-0.587500X0.150000X0*%
%TD*%
%TA.AperFunction,SMDPad,CuDef*%
%ADD19RoundRect,0.237500X0.300000X0.237500X-0.300000X0.237500X-0.300000X-0.237500X0.300000X-0.237500X0*%
%TD*%
%TA.AperFunction,SMDPad,CuDef*%
%ADD20RoundRect,0.237500X0.237500X-0.300000X0.237500X0.300000X-0.237500X0.300000X-0.237500X-0.300000X0*%
%TD*%
%TA.AperFunction,SMDPad,CuDef*%
%ADD21RoundRect,0.250000X1.050000X0.550000X-1.050000X0.550000X-1.050000X-0.550000X1.050000X-0.550000X0*%
%TD*%
%TA.AperFunction,SMDPad,CuDef*%
%ADD22RoundRect,0.237500X0.237500X-0.250000X0.237500X0.250000X-0.237500X0.250000X-0.237500X-0.250000X0*%
%TD*%
%TA.AperFunction,SMDPad,CuDef*%
%ADD23FreePoly0,270.000000*%
%TD*%
%TA.AperFunction,SMDPad,CuDef*%
%ADD24FreePoly1,270.000000*%
%TD*%
%TA.AperFunction,SMDPad,CuDef*%
%ADD25RoundRect,0.237500X-0.300000X-0.237500X0.300000X-0.237500X0.300000X0.237500X-0.300000X0.237500X0*%
%TD*%
%TA.AperFunction,ComponentPad*%
%ADD26RoundRect,0.250000X-1.050000X-1.050000X1.050000X-1.050000X1.050000X1.050000X-1.050000X1.050000X0*%
%TD*%
%TA.AperFunction,ComponentPad*%
%ADD27C,2.600000*%
%TD*%
%TA.AperFunction,SMDPad,CuDef*%
%ADD28RoundRect,0.237500X0.250000X0.237500X-0.250000X0.237500X-0.250000X-0.237500X0.250000X-0.237500X0*%
%TD*%
%TA.AperFunction,SMDPad,CuDef*%
%ADD29FreePoly0,0.000000*%
%TD*%
%TA.AperFunction,SMDPad,CuDef*%
%ADD30FreePoly1,0.000000*%
%TD*%
%TA.AperFunction,SMDPad,CuDef*%
%ADD31RoundRect,0.250000X1.250000X0.550000X-1.250000X0.550000X-1.250000X-0.550000X1.250000X-0.550000X0*%
%TD*%
%TA.AperFunction,SMDPad,CuDef*%
%ADD32FreePoly0,90.000000*%
%TD*%
%TA.AperFunction,SMDPad,CuDef*%
%ADD33FreePoly1,90.000000*%
%TD*%
%TA.AperFunction,SMDPad,CuDef*%
%ADD34RoundRect,0.250000X-1.050000X-0.550000X1.050000X-0.550000X1.050000X0.550000X-1.050000X0.550000X0*%
%TD*%
%TA.AperFunction,SMDPad,CuDef*%
%ADD35RoundRect,0.100000X-0.100000X0.650000X-0.100000X-0.650000X0.100000X-0.650000X0.100000X0.650000X0*%
%TD*%
%TA.AperFunction,SMDPad,CuDef*%
%ADD36RoundRect,0.250000X1.500000X0.550000X-1.500000X0.550000X-1.500000X-0.550000X1.500000X-0.550000X0*%
%TD*%
%TA.AperFunction,SMDPad,CuDef*%
%ADD37RoundRect,0.150000X-0.150000X0.587500X-0.150000X-0.587500X0.150000X-0.587500X0.150000X0.587500X0*%
%TD*%
%TA.AperFunction,ComponentPad*%
%ADD38R,1.700000X1.700000*%
%TD*%
%TA.AperFunction,ComponentPad*%
%ADD39O,1.700000X1.700000*%
%TD*%
%TA.AperFunction,SMDPad,CuDef*%
%ADD40RoundRect,0.250000X-0.475000X0.337500X-0.475000X-0.337500X0.475000X-0.337500X0.475000X0.337500X0*%
%TD*%
%TA.AperFunction,SMDPad,CuDef*%
%ADD41RoundRect,0.100000X-0.225000X-0.100000X0.225000X-0.100000X0.225000X0.100000X-0.225000X0.100000X0*%
%TD*%
%TA.AperFunction,SMDPad,CuDef*%
%ADD42RoundRect,0.150000X-0.150000X0.512500X-0.150000X-0.512500X0.150000X-0.512500X0.150000X0.512500X0*%
%TD*%
%TA.AperFunction,SMDPad,CuDef*%
%ADD43RoundRect,0.250000X0.337500X0.475000X-0.337500X0.475000X-0.337500X-0.475000X0.337500X-0.475000X0*%
%TD*%
%TA.AperFunction,SMDPad,CuDef*%
%ADD44RoundRect,0.200000X-0.200000X-0.600000X0.200000X-0.600000X0.200000X0.600000X-0.200000X0.600000X0*%
%TD*%
%TA.AperFunction,SMDPad,CuDef*%
%ADD45RoundRect,0.250001X-0.799999X-1.249999X0.799999X-1.249999X0.799999X1.249999X-0.799999X1.249999X0*%
%TD*%
%TA.AperFunction,SMDPad,CuDef*%
%ADD46RoundRect,0.150000X0.150000X-0.825000X0.150000X0.825000X-0.150000X0.825000X-0.150000X-0.825000X0*%
%TD*%
%TA.AperFunction,ComponentPad*%
%ADD47RoundRect,0.250000X1.050000X-1.050000X1.050000X1.050000X-1.050000X1.050000X-1.050000X-1.050000X0*%
%TD*%
%TA.AperFunction,SMDPad,CuDef*%
%ADD48RoundRect,0.237500X0.287500X0.237500X-0.287500X0.237500X-0.287500X-0.237500X0.287500X-0.237500X0*%
%TD*%
%TA.AperFunction,SMDPad,CuDef*%
%ADD49RoundRect,0.250000X-1.000000X1.500000X-1.000000X-1.500000X1.000000X-1.500000X1.000000X1.500000X0*%
%TD*%
%TA.AperFunction,SMDPad,CuDef*%
%ADD50RoundRect,0.100000X-0.637500X-0.100000X0.637500X-0.100000X0.637500X0.100000X-0.637500X0.100000X0*%
%TD*%
%TA.AperFunction,SMDPad,CuDef*%
%ADD51RoundRect,0.150000X0.587500X0.150000X-0.587500X0.150000X-0.587500X-0.150000X0.587500X-0.150000X0*%
%TD*%
%TA.AperFunction,ViaPad*%
%ADD52C,0.900000*%
%TD*%
%TA.AperFunction,Conductor*%
%ADD53C,0.400000*%
%TD*%
%TA.AperFunction,Conductor*%
%ADD54C,1.000000*%
%TD*%
%TA.AperFunction,Conductor*%
%ADD55C,0.200000*%
%TD*%
G04 APERTURE END LIST*
D10*
%TA.AperFunction,EtchedComponent*%
%TO.C,JP3*%
G36*
X104400000Y-110250000D02*
G01*
X103800000Y-110250000D01*
X103800000Y-109750000D01*
X104400000Y-109750000D01*
X104400000Y-110250000D01*
G37*
%TD.AperFunction*%
%TA.AperFunction,EtchedComponent*%
%TO.C,JP5*%
G36*
X106100000Y-122400000D02*
G01*
X105500000Y-122400000D01*
X105500000Y-121900000D01*
X106100000Y-121900000D01*
X106100000Y-122400000D01*
G37*
%TD.AperFunction*%
%TA.AperFunction,EtchedComponent*%
%TO.C,JP1*%
G36*
X113650000Y-99150000D02*
G01*
X113150000Y-99150000D01*
X113150000Y-98550000D01*
X113650000Y-98550000D01*
X113650000Y-99150000D01*
G37*
%TD.AperFunction*%
%TD*%
D11*
%TO.P,R2,1*%
%TO.N,Net-(J1-CC1)*%
X136450000Y-77337500D03*
%TO.P,R2,2*%
%TO.N,GND*%
X136450000Y-79162500D03*
%TD*%
D12*
%TO.P,R6,1*%
%TO.N,+3V3*%
X161875000Y-79850000D03*
%TO.P,R6,2*%
%TO.N,Net-(U1-MD0)*%
X163700000Y-79850000D03*
%TD*%
D13*
%TO.P,H4,1*%
%TO.N,N/C*%
X185800000Y-135800000D03*
%TD*%
D14*
%TO.P,J1,A5,CC1*%
%TO.N,Net-(J1-CC1)*%
X133350000Y-72540000D03*
D15*
%TO.P,J1,A9,VBUS*%
%TO.N,+5V*%
X131330000Y-72540000D03*
D16*
%TO.P,J1,A12,GND*%
%TO.N,GND*%
X130100000Y-72540000D03*
D14*
%TO.P,J1,B5,CC2*%
%TO.N,Net-(J1-CC2)*%
X132350000Y-72540000D03*
D15*
%TO.P,J1,B9,VBUS*%
%TO.N,+5V*%
X134370000Y-72540000D03*
D16*
%TO.P,J1,B12,GND*%
%TO.N,GND*%
X135600000Y-72540000D03*
D17*
%TO.P,J1,S1,SHIELD*%
X137170000Y-72360000D03*
X137170000Y-68560000D03*
X128530000Y-72360000D03*
X128530000Y-68560000D03*
%TD*%
D18*
%TO.P,Q13,1,G*%
%TO.N,/LD*%
X135412500Y-119125000D03*
%TO.P,Q13,2,S*%
%TO.N,GND*%
X135412500Y-121025000D03*
%TO.P,Q13,3,D*%
%TO.N,Net-(Q13-D)*%
X137287500Y-120075000D03*
%TD*%
D19*
%TO.P,C21,1*%
%TO.N,Net-(C21-Pad1)*%
X98110000Y-76747500D03*
%TO.P,C21,2*%
%TO.N,GND*%
X96385000Y-76747500D03*
%TD*%
D20*
%TO.P,C16,1*%
%TO.N,Net-(JP1-A)*%
X109880000Y-102262500D03*
%TO.P,C16,2*%
%TO.N,GND*%
X109880000Y-100537500D03*
%TD*%
D21*
%TO.P,C8,1*%
%TO.N,+5V*%
X146825000Y-78800000D03*
%TO.P,C8,2*%
%TO.N,GND*%
X143225000Y-78800000D03*
%TD*%
D22*
%TO.P,R35,1*%
%TO.N,Net-(J4-Pad5)*%
X137550000Y-129537500D03*
%TO.P,R35,2*%
%TO.N,Net-(Q13-D)*%
X137550000Y-127712500D03*
%TD*%
D18*
%TO.P,Q1,1,G*%
%TO.N,/RDP*%
X160600000Y-119175000D03*
%TO.P,Q1,2,S*%
%TO.N,GND*%
X160600000Y-121075000D03*
%TO.P,Q1,3,D*%
%TO.N,Net-(Q1-D)*%
X162475000Y-120125000D03*
%TD*%
D23*
%TO.P,JP4,1,A*%
%TO.N,GND*%
X108800000Y-121500000D03*
D24*
%TO.P,JP4,2,B*%
%TO.N,Net-(JP4-B)*%
X108800000Y-122800000D03*
%TD*%
D25*
%TO.P,C9,1*%
%TO.N,/BUTTON_R*%
X173250000Y-126637500D03*
%TO.P,C9,2*%
%TO.N,GND*%
X174975000Y-126637500D03*
%TD*%
D26*
%TO.P,SW1,1,1*%
%TO.N,/BUTTON_L*%
X119100000Y-134117500D03*
D27*
%TO.P,SW1,2,2*%
%TO.N,Net-(R4-Pad1)*%
X124100000Y-134117500D03*
%TD*%
D22*
%TO.P,R30,1*%
%TO.N,Net-(J3-Pad10)*%
X162850000Y-129600000D03*
%TO.P,R30,2*%
%TO.N,Net-(Q8-D)*%
X162850000Y-127775000D03*
%TD*%
D25*
%TO.P,C10,1*%
%TO.N,/MIC*%
X162387500Y-71450000D03*
%TO.P,C10,2*%
%TO.N,Net-(MK1-+)*%
X164112500Y-71450000D03*
%TD*%
D26*
%TO.P,SW2,1,1*%
%TO.N,/BUTTON_R*%
X173150000Y-134117500D03*
D27*
%TO.P,SW2,2,2*%
%TO.N,Net-(R8-Pad1)*%
X178150000Y-134117500D03*
%TD*%
D13*
%TO.P,H3,1*%
%TO.N,N/C*%
X94250000Y-135800000D03*
%TD*%
D12*
%TO.P,R14,1*%
%TO.N,/Audio Out/AUDIO_L*%
X111275000Y-70275000D03*
%TO.P,R14,2*%
%TO.N,Net-(U3-A_{1})*%
X113100000Y-70275000D03*
%TD*%
D28*
%TO.P,R22,1*%
%TO.N,Net-(C21-Pad1)*%
X98180000Y-78692500D03*
%TO.P,R22,2*%
%TO.N,GND*%
X96355000Y-78692500D03*
%TD*%
D13*
%TO.P,H2,1*%
%TO.N,N/C*%
X94250000Y-69650000D03*
%TD*%
D22*
%TO.P,R36,1*%
%TO.N,Net-(J4-Pad8)*%
X140050000Y-129537500D03*
%TO.P,R36,2*%
%TO.N,Net-(Q14-D)*%
X140050000Y-127712500D03*
%TD*%
%TO.P,R8,1*%
%TO.N,Net-(R8-Pad1)*%
X178050000Y-126550000D03*
%TO.P,R8,2*%
%TO.N,GND*%
X178050000Y-124725000D03*
%TD*%
D12*
%TO.P,R19,1*%
%TO.N,Net-(JP5-B)*%
X109687500Y-114850000D03*
%TO.P,R19,2*%
%TO.N,Net-(C19-Pad1)*%
X111512500Y-114850000D03*
%TD*%
D22*
%TO.P,R29,1*%
%TO.N,Net-(J3-Pad9)*%
X162850000Y-125350000D03*
%TO.P,R29,2*%
%TO.N,Net-(Q7-D)*%
X162850000Y-123525000D03*
%TD*%
%TO.P,R27,1*%
%TO.N,Net-(J3-Pad5)*%
X157850000Y-129600000D03*
%TO.P,R27,2*%
%TO.N,Net-(Q5-D)*%
X157850000Y-127775000D03*
%TD*%
D29*
%TO.P,JP2,1,A*%
%TO.N,Net-(JP1-A)*%
X112750000Y-95850000D03*
D30*
%TO.P,JP2,2,B*%
%TO.N,+5V*%
X114050000Y-95850000D03*
%TD*%
D18*
%TO.P,Q14,1,G*%
%TO.N,/LC*%
X144862500Y-119125000D03*
%TO.P,Q14,2,S*%
%TO.N,GND*%
X144862500Y-121025000D03*
%TO.P,Q14,3,D*%
%TO.N,Net-(Q14-D)*%
X146737500Y-120075000D03*
%TD*%
D22*
%TO.P,R33,1*%
%TO.N,Net-(J4-Pad2)*%
X135050000Y-125287500D03*
%TO.P,R33,2*%
%TO.N,Net-(Q11-D)*%
X135050000Y-123462500D03*
%TD*%
D28*
%TO.P,R41,1*%
%TO.N,Net-(U3-V_{CC})*%
X108612500Y-78770000D03*
%TO.P,R41,2*%
%TO.N,+3V3*%
X106787500Y-78770000D03*
%TD*%
D31*
%TO.P,C13,1*%
%TO.N,Net-(U5-In1M)*%
X99500000Y-95050000D03*
%TO.P,C13,2*%
%TO.N,GND*%
X95100000Y-95050000D03*
%TD*%
D25*
%TO.P,C20,1*%
%TO.N,Net-(C20-Pad1)*%
X103625000Y-116700000D03*
%TO.P,C20,2*%
%TO.N,GND*%
X105350000Y-116700000D03*
%TD*%
D19*
%TO.P,C4,1*%
%TO.N,+3V3*%
X151587500Y-71600000D03*
%TO.P,C4,2*%
%TO.N,GND*%
X149862500Y-71600000D03*
%TD*%
%TO.P,C19,1*%
%TO.N,Net-(C19-Pad1)*%
X111462500Y-116700000D03*
%TO.P,C19,2*%
%TO.N,GND*%
X109737500Y-116700000D03*
%TD*%
D32*
%TO.P,JP3,1,A*%
%TO.N,Net-(JP3-A)*%
X104100000Y-110650000D03*
D33*
%TO.P,JP3,2,B*%
%TO.N,Net-(JP3-B)*%
X104100000Y-109350000D03*
%TD*%
D34*
%TO.P,C2,1*%
%TO.N,+3V3*%
X154675000Y-69750000D03*
%TO.P,C2,2*%
%TO.N,GND*%
X158275000Y-69750000D03*
%TD*%
D35*
%TO.P,U3,1,A_{1}*%
%TO.N,Net-(U3-A_{1})*%
X112925000Y-75750000D03*
%TO.P,U3,2,GND*%
%TO.N,GND*%
X112275000Y-75750000D03*
%TO.P,U3,3,A_{2}*%
%TO.N,unconnected-(U3-A_{2}-Pad3)*%
X111625000Y-75750000D03*
%TO.P,U3,4,Y_{2}*%
%TO.N,unconnected-(U3-Y_{2}-Pad4)*%
X111625000Y-78410000D03*
%TO.P,U3,5,V_{CC}*%
%TO.N,Net-(U3-V_{CC})*%
X112275000Y-78410000D03*
%TO.P,U3,6,Y_{1}*%
%TO.N,Net-(U3-Y_{1})*%
X112925000Y-78410000D03*
%TD*%
D12*
%TO.P,R7,1*%
%TO.N,Net-(U1-MD0)*%
X166875000Y-79850000D03*
%TO.P,R7,2*%
%TO.N,GND*%
X168700000Y-79850000D03*
%TD*%
D22*
%TO.P,R13,1*%
%TO.N,Net-(U2-K)*%
X170675000Y-73412500D03*
%TO.P,R13,2*%
%TO.N,Net-(MK1-+)*%
X170675000Y-71587500D03*
%TD*%
%TO.P,R24,1*%
%TO.N,Net-(J3-Pad3)*%
X155350000Y-129600000D03*
%TO.P,R24,2*%
%TO.N,Net-(Q2-D)*%
X155350000Y-127775000D03*
%TD*%
D28*
%TO.P,R3,1*%
%TO.N,+3V3*%
X121025000Y-124737500D03*
%TO.P,R3,2*%
%TO.N,/BUTTON_L*%
X119200000Y-124737500D03*
%TD*%
D22*
%TO.P,R23,1*%
%TO.N,Net-(J3-Pad7)*%
X160350000Y-125350000D03*
%TO.P,R23,2*%
%TO.N,Net-(Q1-D)*%
X160350000Y-123525000D03*
%TD*%
D36*
%TO.P,C1,1*%
%TO.N,+5V*%
X125100000Y-77300000D03*
%TO.P,C1,2*%
%TO.N,GND*%
X119700000Y-77300000D03*
%TD*%
D37*
%TO.P,D4,1,K*%
%TO.N,GND*%
X98300000Y-83725000D03*
%TO.P,D4,2,A*%
%TO.N,+3V3*%
X96400000Y-83725000D03*
%TO.P,D4,3,K*%
%TO.N,/Audio Out/AUDIO_OUT*%
X97350000Y-85600000D03*
%TD*%
D18*
%TO.P,Q10,1,G*%
%TO.N,/LG*%
X130862500Y-127725000D03*
%TO.P,Q10,2,S*%
%TO.N,GND*%
X130862500Y-129625000D03*
%TO.P,Q10,3,D*%
%TO.N,Net-(Q10-D)*%
X132737500Y-128675000D03*
%TD*%
D25*
%TO.P,C7,1*%
%TO.N,/BUTTON_L*%
X119250000Y-126787500D03*
%TO.P,C7,2*%
%TO.N,GND*%
X120975000Y-126787500D03*
%TD*%
D28*
%TO.P,R17,1*%
%TO.N,Net-(U3-Y_{1})*%
X113212500Y-80775000D03*
%TO.P,R17,2*%
%TO.N,Net-(C14-Pad1)*%
X111387500Y-80775000D03*
%TD*%
D18*
%TO.P,Q4,1,G*%
%TO.N,/RE*%
X151162500Y-119175000D03*
%TO.P,Q4,2,S*%
%TO.N,GND*%
X151162500Y-121075000D03*
%TO.P,Q4,3,D*%
%TO.N,Net-(Q4-D)*%
X153037500Y-120125000D03*
%TD*%
D19*
%TO.P,C14,1*%
%TO.N,Net-(C14-Pad1)*%
X108562500Y-83575000D03*
%TO.P,C14,2*%
%TO.N,GND*%
X106837500Y-83575000D03*
%TD*%
D28*
%TO.P,R5,1*%
%TO.N,+3V3*%
X175025000Y-124587500D03*
%TO.P,R5,2*%
%TO.N,/BUTTON_R*%
X173200000Y-124587500D03*
%TD*%
D32*
%TO.P,JP5,1,A*%
%TO.N,Net-(JP4-B)*%
X105800000Y-122800000D03*
D33*
%TO.P,JP5,2,B*%
%TO.N,Net-(JP5-B)*%
X105800000Y-121500000D03*
%TD*%
D18*
%TO.P,Q16,1,G*%
%TO.N,/LA*%
X144862500Y-127725000D03*
%TO.P,Q16,2,S*%
%TO.N,GND*%
X144862500Y-129625000D03*
%TO.P,Q16,3,D*%
%TO.N,Net-(Q16-D)*%
X146737500Y-128675000D03*
%TD*%
D19*
%TO.P,C5,1*%
%TO.N,Net-(U1-V_{REF})*%
X147237500Y-73400000D03*
%TO.P,C5,2*%
%TO.N,GND*%
X145512500Y-73400000D03*
%TD*%
D28*
%TO.P,R20,1*%
%TO.N,Net-(JP3-A)*%
X105400000Y-114850000D03*
%TO.P,R20,2*%
%TO.N,Net-(C20-Pad1)*%
X103575000Y-114850000D03*
%TD*%
D12*
%TO.P,R10,1*%
%TO.N,Net-(U1-MD1)*%
X166875000Y-77850000D03*
%TO.P,R10,2*%
%TO.N,GND*%
X168700000Y-77850000D03*
%TD*%
D38*
%TO.P,J2,1,3V3*%
%TO.N,+3V3*%
X128160000Y-89350000D03*
D39*
%TO.P,J2,2,5V*%
%TO.N,+5V*%
X128160000Y-86810000D03*
%TO.P,J2,3,SDA/GPIO2*%
%TO.N,/BUTTON_L*%
X130700000Y-89350000D03*
%TO.P,J2,4,5V*%
%TO.N,+5V*%
X130700000Y-86810000D03*
%TO.P,J2,5,SCL/GPIO3*%
%TO.N,/LF*%
X133240000Y-89350000D03*
%TO.P,J2,6,GND*%
%TO.N,GND*%
X133240000Y-86810000D03*
%TO.P,J2,7,GCLK0/GPIO4*%
%TO.N,/MIC_MCLK*%
X135780000Y-89350000D03*
%TO.P,J2,8,GPIO14/TXD*%
%TO.N,/LG*%
X135780000Y-86810000D03*
%TO.P,J2,9,GND*%
%TO.N,GND*%
X138320000Y-89350000D03*
%TO.P,J2,10,GPIO15/RXD*%
%TO.N,/LE*%
X138320000Y-86810000D03*
%TO.P,J2,11,GPIO17*%
%TO.N,/LD*%
X140860000Y-89350000D03*
%TO.P,J2,12,GPIO18/CLK*%
%TO.N,/MIC_BCLK*%
X140860000Y-86810000D03*
%TO.P,J2,13,GPIO27*%
%TO.N,/LDP*%
X143400000Y-89350000D03*
%TO.P,J2,14,GND*%
%TO.N,GND*%
X143400000Y-86810000D03*
%TO.P,J2,15,GPIO22*%
%TO.N,/LB*%
X145940000Y-89350000D03*
%TO.P,J2,16,GPIO23*%
%TO.N,/LC*%
X145940000Y-86810000D03*
%TO.P,J2,17,3V3*%
%TO.N,+3V3*%
X148480000Y-89350000D03*
%TO.P,J2,18,GPIO24*%
%TO.N,/LA*%
X148480000Y-86810000D03*
%TO.P,J2,19,MOSI0/GPIO10*%
%TO.N,/RG*%
X151020000Y-89350000D03*
%TO.P,J2,20,GND*%
%TO.N,GND*%
X151020000Y-86810000D03*
%TO.P,J2,21,MISO0/GPIO9*%
%TO.N,/RE*%
X153560000Y-89350000D03*
%TO.P,J2,22,GPIO25*%
%TO.N,/RF*%
X153560000Y-86810000D03*
%TO.P,J2,23,SCLK0/GPIO11*%
%TO.N,unconnected-(J2-SCLK0{slash}GPIO11-Pad23)*%
X156100000Y-89350000D03*
%TO.P,J2,24,~{CE0}/GPIO8*%
%TO.N,/RD*%
X156100000Y-86810000D03*
%TO.P,J2,25,GND*%
%TO.N,GND*%
X158640000Y-89350000D03*
%TO.P,J2,26,~{CE1}/GPIO7*%
%TO.N,/RDP*%
X158640000Y-86810000D03*
%TO.P,J2,27,ID_SD/GPIO0*%
%TO.N,unconnected-(J2-ID_SD{slash}GPIO0-Pad27)*%
X161180000Y-89350000D03*
%TO.P,J2,28,ID_SC/GPIO1*%
%TO.N,unconnected-(J2-ID_SC{slash}GPIO1-Pad28)*%
X161180000Y-86810000D03*
%TO.P,J2,29,GCLK1/GPIO5*%
%TO.N,/RC*%
X163720000Y-89350000D03*
%TO.P,J2,30,GND*%
%TO.N,GND*%
X163720000Y-86810000D03*
%TO.P,J2,31,GCLK2/GPIO6*%
%TO.N,/RB*%
X166260000Y-89350000D03*
%TO.P,J2,32,PWM0/GPIO12*%
%TO.N,/Audio Out/AUDIO_R*%
X166260000Y-86810000D03*
%TO.P,J2,33,PWM1/GPIO13*%
%TO.N,/Audio Out/AUDIO_L*%
X168800000Y-89350000D03*
%TO.P,J2,34,GND*%
%TO.N,GND*%
X168800000Y-86810000D03*
%TO.P,J2,35,GPIO19/FS*%
%TO.N,/MIC_LRCLK*%
X171340000Y-89350000D03*
%TO.P,J2,36,GPIO16*%
%TO.N,/RA*%
X171340000Y-86810000D03*
%TO.P,J2,37,GPIO26*%
%TO.N,/BUTTON_R*%
X173880000Y-89350000D03*
%TO.P,J2,38,GPIO20/DIN*%
%TO.N,/MIC_DOUT*%
X173880000Y-86810000D03*
%TO.P,J2,39,GND*%
%TO.N,GND*%
X176420000Y-89350000D03*
%TO.P,J2,40,GPIO21/DOUT*%
%TO.N,unconnected-(J2-GPIO21{slash}DOUT-Pad40)*%
X176420000Y-86810000D03*
%TD*%
D13*
%TO.P,H1,1*%
%TO.N,N/C*%
X185800000Y-69650000D03*
%TD*%
D22*
%TO.P,R4,1*%
%TO.N,Net-(R4-Pad1)*%
X124050000Y-126700000D03*
%TO.P,R4,2*%
%TO.N,GND*%
X124050000Y-124875000D03*
%TD*%
D37*
%TO.P,D3,1,K*%
%TO.N,GND*%
X113200000Y-88987500D03*
%TO.P,D3,2,A*%
%TO.N,+3V3*%
X111300000Y-88987500D03*
%TO.P,D3,3,K*%
%TO.N,/Audio Out/AUDIO_OUT*%
X112250000Y-90862500D03*
%TD*%
D40*
%TO.P,C15,1*%
%TO.N,Net-(C14-Pad1)*%
X112250000Y-84337500D03*
%TO.P,C15,2*%
%TO.N,/Audio Out/AUDIO_OUT*%
X112250000Y-86412500D03*
%TD*%
D28*
%TO.P,R40,1*%
%TO.N,Net-(U3-V_{CC})*%
X108612500Y-80780000D03*
%TO.P,R40,2*%
%TO.N,+3V3*%
X106787500Y-80780000D03*
%TD*%
D41*
%TO.P,U2,1,A*%
%TO.N,GND*%
X174100000Y-72100000D03*
%TO.P,U2,2,NC*%
%TO.N,unconnected-(U2-NC-Pad2)*%
X174100000Y-72750000D03*
%TO.P,U2,3,K*%
%TO.N,Net-(U2-K)*%
X174100000Y-73400000D03*
%TO.P,U2,4,NC*%
%TO.N,unconnected-(U2-NC-Pad4)*%
X176000000Y-73400000D03*
%TO.P,U2,5,NC*%
%TO.N,unconnected-(U2-NC-Pad5)*%
X176000000Y-72100000D03*
%TD*%
D12*
%TO.P,R21,1*%
%TO.N,/Audio Out/AUDIO_R*%
X96305000Y-74852500D03*
%TO.P,R21,2*%
%TO.N,Net-(C21-Pad1)*%
X98130000Y-74852500D03*
%TD*%
D18*
%TO.P,Q8,1,G*%
%TO.N,/RA*%
X165162500Y-127775000D03*
%TO.P,Q8,2,S*%
%TO.N,GND*%
X165162500Y-129675000D03*
%TO.P,Q8,3,D*%
%TO.N,Net-(Q8-D)*%
X167037500Y-128725000D03*
%TD*%
D22*
%TO.P,R28,1*%
%TO.N,Net-(J3-Pad8)*%
X160350000Y-129600000D03*
%TO.P,R28,2*%
%TO.N,Net-(Q6-D)*%
X160350000Y-127775000D03*
%TD*%
D18*
%TO.P,Q6,1,G*%
%TO.N,/RC*%
X165162500Y-119175000D03*
%TO.P,Q6,2,S*%
%TO.N,GND*%
X165162500Y-121075000D03*
%TO.P,Q6,3,D*%
%TO.N,Net-(Q6-D)*%
X167037500Y-120125000D03*
%TD*%
D42*
%TO.P,D2,1,K*%
%TO.N,Net-(J1-CC1)*%
X134450000Y-77325000D03*
%TO.P,D2,2,K*%
%TO.N,Net-(J1-CC2)*%
X132550000Y-77325000D03*
%TO.P,D2,3,A*%
%TO.N,GND*%
X133500000Y-79600000D03*
%TD*%
D29*
%TO.P,JP1,1,A*%
%TO.N,Net-(JP1-A)*%
X112750000Y-98850000D03*
D30*
%TO.P,JP1,2,B*%
%TO.N,+3V3*%
X114050000Y-98850000D03*
%TD*%
D28*
%TO.P,R42,1*%
%TO.N,Net-(U3-V_{CC})*%
X108612500Y-76760000D03*
%TO.P,R42,2*%
%TO.N,+3V3*%
X106787500Y-76760000D03*
%TD*%
D22*
%TO.P,R34,1*%
%TO.N,Net-(J4-Pad4)*%
X137550000Y-125287500D03*
%TO.P,R34,2*%
%TO.N,Net-(Q12-D)*%
X137550000Y-123462500D03*
%TD*%
D12*
%TO.P,R12,1*%
%TO.N,Net-(U1-FMT)*%
X166875000Y-75850000D03*
%TO.P,R12,2*%
%TO.N,GND*%
X168700000Y-75850000D03*
%TD*%
D28*
%TO.P,R18,1*%
%TO.N,Net-(C14-Pad1)*%
X108575000Y-85525000D03*
%TO.P,R18,2*%
%TO.N,GND*%
X106750000Y-85525000D03*
%TD*%
D43*
%TO.P,C22,1*%
%TO.N,Net-(C21-Pad1)*%
X98325000Y-81142500D03*
%TO.P,C22,2*%
%TO.N,/Audio Out/AUDIO_OUT*%
X96250000Y-81142500D03*
%TD*%
D44*
%TO.P,J3,1,1*%
%TO.N,+3V3*%
X153475000Y-134375000D03*
%TO.P,J3,2,2*%
%TO.N,Net-(J3-Pad2)*%
X154725000Y-134375000D03*
%TO.P,J3,3,3*%
%TO.N,Net-(J3-Pad3)*%
X155975000Y-134375000D03*
%TO.P,J3,4,4*%
%TO.N,Net-(J3-Pad4)*%
X157225000Y-134375000D03*
%TO.P,J3,5,5*%
%TO.N,Net-(J3-Pad5)*%
X158475000Y-134375000D03*
%TO.P,J3,6,6*%
%TO.N,+3V3*%
X159725000Y-134375000D03*
%TO.P,J3,7,7*%
%TO.N,Net-(J3-Pad7)*%
X160975000Y-134375000D03*
%TO.P,J3,8,8*%
%TO.N,Net-(J3-Pad8)*%
X162225000Y-134375000D03*
%TO.P,J3,9,9*%
%TO.N,Net-(J3-Pad9)*%
X163475000Y-134375000D03*
%TO.P,J3,10,10*%
%TO.N,Net-(J3-Pad10)*%
X164725000Y-134375000D03*
D45*
%TO.P,J3,MP*%
%TO.N,N/C*%
X150925000Y-137275000D03*
X167275000Y-137275000D03*
%TD*%
D22*
%TO.P,R37,1*%
%TO.N,Net-(J4-Pad9)*%
X142550000Y-125287500D03*
%TO.P,R37,2*%
%TO.N,Net-(Q15-D)*%
X142550000Y-123462500D03*
%TD*%
D26*
%TO.P,LS1,1,1*%
%TO.N,Net-(JP3-A)*%
X102500000Y-134117500D03*
D27*
%TO.P,LS1,2,2*%
%TO.N,Net-(JP4-B)*%
X107500000Y-134117500D03*
%TD*%
D46*
%TO.P,U5,1,Out1*%
%TO.N,Net-(JP3-B)*%
X103925000Y-105415000D03*
%TO.P,U5,2,V_{CC}*%
%TO.N,Net-(JP1-A)*%
X105195000Y-105415000D03*
%TO.P,U5,3,Out2*%
%TO.N,Net-(JP5-B)*%
X106465000Y-105415000D03*
%TO.P,U5,4,GND*%
%TO.N,GND*%
X107735000Y-105415000D03*
%TO.P,U5,5,In2M*%
%TO.N,Net-(U5-In2M)*%
X107735000Y-100465000D03*
%TO.P,U5,6,In2P*%
%TO.N,GND*%
X106465000Y-100465000D03*
%TO.P,U5,7,In1P*%
%TO.N,/Audio Out/AUDIO_OUT*%
X105195000Y-100465000D03*
%TO.P,U5,8,In1M*%
%TO.N,Net-(U5-In1M)*%
X103925000Y-100465000D03*
%TD*%
D44*
%TO.P,J4,1,1*%
%TO.N,+3V3*%
X133150000Y-134375000D03*
%TO.P,J4,2,2*%
%TO.N,Net-(J4-Pad2)*%
X134400000Y-134375000D03*
%TO.P,J4,3,3*%
%TO.N,Net-(J4-Pad3)*%
X135650000Y-134375000D03*
%TO.P,J4,4,4*%
%TO.N,Net-(J4-Pad4)*%
X136900000Y-134375000D03*
%TO.P,J4,5,5*%
%TO.N,Net-(J4-Pad5)*%
X138150000Y-134375000D03*
%TO.P,J4,6,6*%
%TO.N,+3V3*%
X139400000Y-134375000D03*
%TO.P,J4,7,7*%
%TO.N,Net-(J4-Pad7)*%
X140650000Y-134375000D03*
%TO.P,J4,8,8*%
%TO.N,Net-(J4-Pad8)*%
X141900000Y-134375000D03*
%TO.P,J4,9,9*%
%TO.N,Net-(J4-Pad9)*%
X143150000Y-134375000D03*
%TO.P,J4,10,10*%
%TO.N,Net-(J4-Pad10)*%
X144400000Y-134375000D03*
D45*
%TO.P,J4,MP*%
%TO.N,N/C*%
X130600000Y-137275000D03*
X146950000Y-137275000D03*
%TD*%
D22*
%TO.P,R38,1*%
%TO.N,Net-(J4-Pad10)*%
X142550000Y-129537500D03*
%TO.P,R38,2*%
%TO.N,Net-(Q16-D)*%
X142550000Y-127712500D03*
%TD*%
D18*
%TO.P,Q3,1,G*%
%TO.N,/RF*%
X151162500Y-123525000D03*
%TO.P,Q3,2,S*%
%TO.N,GND*%
X151162500Y-125425000D03*
%TO.P,Q3,3,D*%
%TO.N,Net-(Q3-D)*%
X153037500Y-124475000D03*
%TD*%
D22*
%TO.P,R25,1*%
%TO.N,Net-(J3-Pad2)*%
X155350000Y-125350000D03*
%TO.P,R25,2*%
%TO.N,Net-(Q3-D)*%
X155350000Y-123525000D03*
%TD*%
D18*
%TO.P,Q7,1,G*%
%TO.N,/RB*%
X165162500Y-123475000D03*
%TO.P,Q7,2,S*%
%TO.N,GND*%
X165162500Y-125375000D03*
%TO.P,Q7,3,D*%
%TO.N,Net-(Q7-D)*%
X167037500Y-124425000D03*
%TD*%
%TO.P,Q5,1,G*%
%TO.N,/RD*%
X155712500Y-119162500D03*
%TO.P,Q5,2,S*%
%TO.N,GND*%
X155712500Y-121062500D03*
%TO.P,Q5,3,D*%
%TO.N,Net-(Q5-D)*%
X157587500Y-120112500D03*
%TD*%
D47*
%TO.P,MK1,1,-*%
%TO.N,GND*%
X183417500Y-80400000D03*
D27*
%TO.P,MK1,2,+*%
%TO.N,Net-(MK1-+)*%
X183417500Y-75400000D03*
%TD*%
D18*
%TO.P,Q12,1,G*%
%TO.N,/LE*%
X130862500Y-119125000D03*
%TO.P,Q12,2,S*%
%TO.N,GND*%
X130862500Y-121025000D03*
%TO.P,Q12,3,D*%
%TO.N,Net-(Q12-D)*%
X132737500Y-120075000D03*
%TD*%
%TO.P,Q15,1,G*%
%TO.N,/LB*%
X144862500Y-123425000D03*
%TO.P,Q15,2,S*%
%TO.N,GND*%
X144862500Y-125325000D03*
%TO.P,Q15,3,D*%
%TO.N,Net-(Q15-D)*%
X146737500Y-124375000D03*
%TD*%
D22*
%TO.P,R26,1*%
%TO.N,Net-(J3-Pad4)*%
X157850000Y-125350000D03*
%TO.P,R26,2*%
%TO.N,Net-(Q4-D)*%
X157850000Y-123525000D03*
%TD*%
D34*
%TO.P,C17,1*%
%TO.N,Net-(JP1-A)*%
X110830000Y-105550000D03*
%TO.P,C17,2*%
%TO.N,GND*%
X114430000Y-105550000D03*
%TD*%
D21*
%TO.P,C3,1*%
%TO.N,Net-(U1-V_{REF})*%
X146825000Y-69800000D03*
%TO.P,C3,2*%
%TO.N,GND*%
X143225000Y-69800000D03*
%TD*%
D18*
%TO.P,Q2,1,G*%
%TO.N,/RG*%
X151162500Y-127725000D03*
%TO.P,Q2,2,S*%
%TO.N,GND*%
X151162500Y-129625000D03*
%TO.P,Q2,3,D*%
%TO.N,Net-(Q2-D)*%
X153037500Y-128675000D03*
%TD*%
D21*
%TO.P,C11,1*%
%TO.N,Net-(U5-In1M)*%
X99600000Y-104950000D03*
%TO.P,C11,2*%
%TO.N,Net-(U5-In2M)*%
X96000000Y-104950000D03*
%TD*%
D22*
%TO.P,R32,1*%
%TO.N,Net-(J4-Pad3)*%
X135050000Y-129537500D03*
%TO.P,R32,2*%
%TO.N,Net-(Q10-D)*%
X135050000Y-127712500D03*
%TD*%
D18*
%TO.P,Q11,1,G*%
%TO.N,/LF*%
X130862500Y-123425000D03*
%TO.P,Q11,2,S*%
%TO.N,GND*%
X130862500Y-125325000D03*
%TO.P,Q11,3,D*%
%TO.N,Net-(Q11-D)*%
X132737500Y-124375000D03*
%TD*%
D28*
%TO.P,R43,1*%
%TO.N,Net-(U3-V_{CC})*%
X108612500Y-74750000D03*
%TO.P,R43,2*%
%TO.N,+3V3*%
X106787500Y-74750000D03*
%TD*%
D11*
%TO.P,R39,1*%
%TO.N,+3V3*%
X168700000Y-71600000D03*
%TO.P,R39,2*%
%TO.N,Net-(U2-K)*%
X168700000Y-73425000D03*
%TD*%
D12*
%TO.P,R11,1*%
%TO.N,+3V3*%
X161875000Y-75850000D03*
%TO.P,R11,2*%
%TO.N,Net-(U1-FMT)*%
X163700000Y-75850000D03*
%TD*%
%TO.P,R9,1*%
%TO.N,+3V3*%
X161875000Y-77850000D03*
%TO.P,R9,2*%
%TO.N,Net-(U1-MD1)*%
X163700000Y-77850000D03*
%TD*%
D18*
%TO.P,Q9,1,G*%
%TO.N,/LDP*%
X140312500Y-119125000D03*
%TO.P,Q9,2,S*%
%TO.N,GND*%
X140312500Y-121025000D03*
%TO.P,Q9,3,D*%
%TO.N,Net-(Q9-D)*%
X142187500Y-120075000D03*
%TD*%
D11*
%TO.P,R1,1*%
%TO.N,Net-(J1-CC2)*%
X130550000Y-77337500D03*
%TO.P,R1,2*%
%TO.N,GND*%
X130550000Y-79162500D03*
%TD*%
D28*
%TO.P,R15,1*%
%TO.N,Net-(U3-A_{1})*%
X113100000Y-72225000D03*
%TO.P,R15,2*%
%TO.N,GND*%
X111275000Y-72225000D03*
%TD*%
D48*
%TO.P,D1,1,K*%
%TO.N,+5V*%
X123700000Y-71350000D03*
%TO.P,D1,2,A*%
%TO.N,GND*%
X121950000Y-71350000D03*
%TD*%
D19*
%TO.P,C6,1*%
%TO.N,+5V*%
X147237500Y-75250000D03*
%TO.P,C6,2*%
%TO.N,GND*%
X145512500Y-75250000D03*
%TD*%
D28*
%TO.P,R16,1*%
%TO.N,GND*%
X107002500Y-96820000D03*
%TO.P,R16,2*%
%TO.N,/Audio Out/AUDIO_OUT*%
X105177500Y-96820000D03*
%TD*%
D49*
%TO.P,C18,1*%
%TO.N,Net-(JP3-B)*%
X97400000Y-112650000D03*
%TO.P,C18,2*%
%TO.N,Net-(JP3-A)*%
X97400000Y-119150000D03*
%TD*%
D50*
%TO.P,U1,1,V_{REF}*%
%TO.N,Net-(U1-V_{REF})*%
X150025000Y-73650000D03*
%TO.P,U1,2,A_{GND}*%
%TO.N,GND*%
X150025000Y-74300000D03*
%TO.P,U1,3,V_{CC}*%
%TO.N,+5V*%
X150025000Y-74950000D03*
%TO.P,U1,4,V_{DD}*%
%TO.N,+3V3*%
X150025000Y-75600000D03*
%TO.P,U1,5,D_{GND}*%
%TO.N,GND*%
X150025000Y-76250000D03*
%TO.P,U1,6,SCKI*%
%TO.N,/MIC_MCLK*%
X150025000Y-76900000D03*
%TO.P,U1,7,LRCK*%
%TO.N,/MIC_LRCLK*%
X150025000Y-77550000D03*
%TO.P,U1,8,BCK*%
%TO.N,/MIC_BCLK*%
X155750000Y-77550000D03*
%TO.P,U1,9,DOUT*%
%TO.N,/MIC_DOUT*%
X155750000Y-76900000D03*
%TO.P,U1,10,MD0*%
%TO.N,Net-(U1-MD0)*%
X155750000Y-76250000D03*
%TO.P,U1,11,MD1*%
%TO.N,Net-(U1-MD1)*%
X155750000Y-75600000D03*
%TO.P,U1,12,FMT*%
%TO.N,Net-(U1-FMT)*%
X155750000Y-74950000D03*
%TO.P,U1,13,V_{IN}L*%
%TO.N,unconnected-(U1-V_{IN}L-Pad13)*%
X155750000Y-74300000D03*
%TO.P,U1,14,V_{IN}R*%
%TO.N,/MIC*%
X155750000Y-73650000D03*
%TD*%
D51*
%TO.P,U4,1,K*%
%TO.N,Net-(U3-V_{CC})*%
X108587500Y-72500000D03*
%TO.P,U4,2,A*%
%TO.N,GND*%
X108587500Y-70600000D03*
%TO.P,U4,3,NC*%
%TO.N,unconnected-(U4-NC-Pad3)*%
X106712500Y-71550000D03*
%TD*%
D25*
%TO.P,C12,1*%
%TO.N,Net-(U5-In2M)*%
X96197500Y-101190000D03*
%TO.P,C12,2*%
%TO.N,GND*%
X97922500Y-101190000D03*
%TD*%
D22*
%TO.P,R31,1*%
%TO.N,Net-(J4-Pad7)*%
X140050000Y-125287500D03*
%TO.P,R31,2*%
%TO.N,Net-(Q9-D)*%
X140050000Y-123462500D03*
%TD*%
D52*
%TO.N,GND*%
X116500000Y-105500000D03*
X114400000Y-107100000D03*
X114450000Y-104000000D03*
X95000000Y-78650000D03*
X95000000Y-76750000D03*
X135600000Y-71050000D03*
X130100000Y-71100000D03*
X122250000Y-77300000D03*
X117150000Y-77300000D03*
X119700000Y-79000000D03*
X119700000Y-75550000D03*
X120350000Y-71350000D03*
X121950000Y-72900000D03*
X121950000Y-69800000D03*
X182350000Y-122150000D03*
X92500000Y-83500000D03*
X92550000Y-90650000D03*
X100300000Y-88650000D03*
X92700000Y-101700000D03*
X92700000Y-107600000D03*
X150350000Y-67350000D03*
X165800000Y-67850000D03*
X179500000Y-68150000D03*
X174400000Y-80900000D03*
X122600000Y-93650000D03*
X172300000Y-92700000D03*
X171950000Y-107400000D03*
X124050000Y-112850000D03*
X133250000Y-109200000D03*
X142650000Y-98450000D03*
X138050000Y-111600000D03*
X153650000Y-110950000D03*
X154100000Y-96900000D03*
X157750000Y-106450000D03*
X163000000Y-112600000D03*
X162500000Y-98200000D03*
X177400000Y-98800000D03*
X180000000Y-107550000D03*
X177750000Y-117100000D03*
X182850000Y-132850000D03*
X163200000Y-137800000D03*
X156250000Y-138000000D03*
X143500000Y-137900000D03*
X137050000Y-137900000D03*
X125200000Y-120200000D03*
X113650000Y-136650000D03*
X115800000Y-118750000D03*
X113350000Y-126800000D03*
X115050000Y-111850000D03*
X122900000Y-103050000D03*
X137850000Y-96700000D03*
X117900000Y-81100000D03*
X118400000Y-87950000D03*
X139600000Y-67800000D03*
X140000000Y-75050000D03*
X118400000Y-69200000D03*
X98900000Y-69800000D03*
X97800000Y-133200000D03*
X93500000Y-130200000D03*
X186800000Y-127400000D03*
X186900000Y-117400000D03*
X187000000Y-109600000D03*
X187000000Y-103050000D03*
X186900000Y-94850000D03*
X186800000Y-87900000D03*
%TO.N,+3V3*%
X152850000Y-73900000D03*
X167450000Y-71600000D03*
%TO.N,GND*%
X153050000Y-130050000D03*
X151150000Y-124500000D03*
X151150000Y-120200000D03*
X155700000Y-120112500D03*
X160600000Y-120175000D03*
X167200000Y-121200000D03*
X167200000Y-125500000D03*
X167200000Y-129750000D03*
%TO.N,+3V3*%
X175050000Y-123000000D03*
X121000000Y-122950000D03*
X94950000Y-83750000D03*
X105050000Y-80800000D03*
X109950000Y-89000000D03*
X115900000Y-98850000D03*
%TO.N,GND*%
X95100000Y-96750000D03*
X170000000Y-79850000D03*
X122350000Y-126800000D03*
X179450000Y-124300000D03*
X137600000Y-79150000D03*
X108900000Y-69650000D03*
X146875000Y-121125000D03*
X108150000Y-96850000D03*
X176250000Y-126650000D03*
X106800000Y-82400000D03*
X144350000Y-75250000D03*
X105350000Y-117900000D03*
X143450000Y-77300000D03*
X106800000Y-86750000D03*
X114500000Y-88600000D03*
X146800000Y-125500000D03*
X106450000Y-98750000D03*
X144350000Y-73400000D03*
X134550000Y-79800000D03*
X149850000Y-70400000D03*
X99400000Y-84400000D03*
X111050000Y-73350000D03*
X158300000Y-71250000D03*
X99110000Y-101190000D03*
X132750000Y-129650000D03*
X109900000Y-99300000D03*
X129400000Y-79150000D03*
X140275000Y-120075000D03*
X125800000Y-124400000D03*
X130850000Y-120075000D03*
X170000000Y-77850000D03*
X135399571Y-120075000D03*
X108800000Y-120000000D03*
X170000000Y-75850000D03*
X146950000Y-129750000D03*
X172700000Y-72100000D03*
X151450000Y-74300000D03*
X107750000Y-107100000D03*
X109762500Y-117900000D03*
X132400000Y-125400000D03*
X143250000Y-71350000D03*
X112250000Y-74450000D03*
X148650000Y-76250000D03*
%TO.N,+3V3*%
X153550000Y-135850000D03*
X133150000Y-135800000D03*
X160650000Y-75800000D03*
X139400000Y-135800000D03*
X160650000Y-79850000D03*
X159750000Y-135900000D03*
X160650000Y-77850000D03*
%TO.N,/MIC_LRCLK*%
X150050000Y-78900000D03*
X152550000Y-81400000D03*
%TO.N,/Audio Out/AUDIO_L*%
X110100000Y-70250000D03*
%TO.N,/Audio Out/AUDIO_R*%
X96300000Y-73150000D03*
%TD*%
D53*
%TO.N,GND*%
X116450000Y-105550000D02*
X116500000Y-105500000D01*
X114430000Y-105550000D02*
X116450000Y-105550000D01*
X114430000Y-107070000D02*
X114400000Y-107100000D01*
X114430000Y-105550000D02*
X114430000Y-107070000D01*
X114430000Y-104020000D02*
X114450000Y-104000000D01*
X114430000Y-105550000D02*
X114430000Y-104020000D01*
%TO.N,Net-(JP1-A)*%
X105195000Y-105415000D02*
X105195000Y-104055000D01*
X105195000Y-104055000D02*
X105800000Y-103450000D01*
X105800000Y-103450000D02*
X107500000Y-103450000D01*
X107500000Y-103450000D02*
X108687500Y-102262500D01*
X108687500Y-102262500D02*
X109880000Y-102262500D01*
D54*
X110830000Y-105550000D02*
X109880000Y-104600000D01*
X109880000Y-104600000D02*
X109880000Y-102262500D01*
X112750000Y-98850000D02*
X112750000Y-100550000D01*
X112750000Y-100550000D02*
X111037500Y-102262500D01*
X111037500Y-102262500D02*
X109880000Y-102262500D01*
X112750000Y-95850000D02*
X112750000Y-98850000D01*
D53*
%TO.N,GND*%
X95042500Y-78692500D02*
X95000000Y-78650000D01*
X96355000Y-78692500D02*
X95042500Y-78692500D01*
X95002500Y-76747500D02*
X95000000Y-76750000D01*
X96385000Y-76747500D02*
X95002500Y-76747500D01*
D54*
X135600000Y-72540000D02*
X135600000Y-71050000D01*
X130100000Y-72540000D02*
X130100000Y-71100000D01*
X119700000Y-77300000D02*
X122250000Y-77300000D01*
X119700000Y-77300000D02*
X117150000Y-77300000D01*
X119700000Y-77300000D02*
X119700000Y-79000000D01*
X119700000Y-77300000D02*
X119700000Y-75550000D01*
X121950000Y-71350000D02*
X120350000Y-71350000D01*
X121950000Y-71350000D02*
X121950000Y-72900000D01*
X121950000Y-71350000D02*
X121950000Y-69800000D01*
D53*
%TO.N,+3V3*%
X152850000Y-73900000D02*
X152850000Y-74200000D01*
X168700000Y-71600000D02*
X167450000Y-71600000D01*
D54*
X133150000Y-134375000D02*
X133150000Y-135800000D01*
X139400000Y-134375000D02*
X139400000Y-135800000D01*
X153550000Y-135850000D02*
X153475000Y-135775000D01*
X153475000Y-135775000D02*
X153475000Y-134375000D01*
X159725000Y-134375000D02*
X159725000Y-135875000D01*
X159725000Y-135875000D02*
X159750000Y-135900000D01*
D55*
%TO.N,GND*%
X152625000Y-129625000D02*
X153050000Y-130050000D01*
X151162500Y-129625000D02*
X152625000Y-129625000D01*
X151162500Y-124512500D02*
X151150000Y-124500000D01*
X151162500Y-125425000D02*
X151162500Y-124512500D01*
X151162500Y-120212500D02*
X151150000Y-120200000D01*
X151162500Y-121075000D02*
X151162500Y-120212500D01*
X160600000Y-120175000D02*
X160600000Y-121075000D01*
X155712500Y-120125000D02*
X155700000Y-120112500D01*
X155712500Y-121062500D02*
X155712500Y-120125000D01*
X167075000Y-121075000D02*
X167200000Y-121200000D01*
X165162500Y-121075000D02*
X167075000Y-121075000D01*
X167075000Y-125375000D02*
X167200000Y-125500000D01*
X165162500Y-125375000D02*
X167075000Y-125375000D01*
X167125000Y-129675000D02*
X167200000Y-129750000D01*
X165162500Y-129675000D02*
X167125000Y-129675000D01*
D54*
%TO.N,+3V3*%
X175025000Y-123025000D02*
X175050000Y-123000000D01*
X175025000Y-124587500D02*
X175025000Y-123025000D01*
X121025000Y-122975000D02*
X121000000Y-122950000D01*
X121025000Y-124737500D02*
X121025000Y-122975000D01*
D53*
X106787500Y-78770000D02*
X106787500Y-80780000D01*
D54*
X96400000Y-83725000D02*
X94975000Y-83725000D01*
X94975000Y-83725000D02*
X94950000Y-83750000D01*
X105070000Y-80780000D02*
X105050000Y-80800000D01*
X106787500Y-80780000D02*
X105070000Y-80780000D01*
X109962500Y-88987500D02*
X109950000Y-89000000D01*
X111300000Y-88987500D02*
X109962500Y-88987500D01*
X114050000Y-98850000D02*
X115900000Y-98850000D01*
D53*
%TO.N,Net-(U3-A_{1})*%
X112925000Y-75750000D02*
X113300000Y-75750000D01*
X113300000Y-75750000D02*
X113700000Y-75350000D01*
X113700000Y-75350000D02*
X113700000Y-72825000D01*
X113700000Y-72825000D02*
X113100000Y-72225000D01*
%TO.N,GND*%
X97922500Y-101190000D02*
X99110000Y-101190000D01*
X95100000Y-95050000D02*
X95100000Y-96750000D01*
%TO.N,Net-(U5-In2M)*%
X96000000Y-104950000D02*
X97800000Y-106750000D01*
X97800000Y-106750000D02*
X101350000Y-106750000D01*
X101350000Y-106750000D02*
X102200000Y-105900000D01*
X107012500Y-102400000D02*
X107735000Y-101677500D01*
X102200000Y-105900000D02*
X102200000Y-103500000D01*
X102200000Y-103500000D02*
X103300000Y-102400000D01*
X103300000Y-102400000D02*
X107012500Y-102400000D01*
X107735000Y-101677500D02*
X107735000Y-100465000D01*
%TO.N,Net-(U5-In1M)*%
X99600000Y-104950000D02*
X99600000Y-103700000D01*
X99600000Y-103700000D02*
X102835000Y-100465000D01*
X102835000Y-100465000D02*
X103925000Y-100465000D01*
X103925000Y-100465000D02*
X103925000Y-97775000D01*
X103925000Y-97775000D02*
X101200000Y-95050000D01*
X101200000Y-95050000D02*
X99500000Y-95050000D01*
%TO.N,GND*%
X107750000Y-107100000D02*
X107735000Y-107085000D01*
X107735000Y-107085000D02*
X107735000Y-105415000D01*
X105350000Y-116700000D02*
X105350000Y-117900000D01*
X109762500Y-117900000D02*
X109737500Y-117875000D01*
X109737500Y-117875000D02*
X109737500Y-116700000D01*
X108800000Y-121500000D02*
X108800000Y-120000000D01*
X122350000Y-126800000D02*
X122337500Y-126787500D01*
X122337500Y-126787500D02*
X120975000Y-126787500D01*
X125800000Y-124400000D02*
X125325000Y-124875000D01*
X125325000Y-124875000D02*
X124050000Y-124875000D01*
X179450000Y-124300000D02*
X179400000Y-124300000D01*
X179400000Y-124300000D02*
X178975000Y-124725000D01*
X178975000Y-124725000D02*
X178050000Y-124725000D01*
X176250000Y-126650000D02*
X176237500Y-126637500D01*
X176237500Y-126637500D02*
X174975000Y-126637500D01*
D55*
X146950000Y-129750000D02*
X144987500Y-129750000D01*
X144987500Y-129750000D02*
X144862500Y-129625000D01*
X146800000Y-125500000D02*
X146625000Y-125325000D01*
X146625000Y-125325000D02*
X144862500Y-125325000D01*
X146875000Y-121125000D02*
X146775000Y-121025000D01*
X146775000Y-121025000D02*
X144862500Y-121025000D01*
X140275000Y-120075000D02*
X140312500Y-120112500D01*
X140312500Y-120112500D02*
X140312500Y-121025000D01*
X135399571Y-120075000D02*
X135399571Y-120174571D01*
X135399571Y-120174571D02*
X135412500Y-120187500D01*
X135412500Y-120187500D02*
X135412500Y-121025000D01*
X130850000Y-120075000D02*
X130850000Y-120150000D01*
X130850000Y-120150000D02*
X130862500Y-120162500D01*
X130862500Y-120162500D02*
X130862500Y-121025000D01*
X130937500Y-125400000D02*
X130862500Y-125325000D01*
X132400000Y-125400000D02*
X130937500Y-125400000D01*
X132750000Y-129650000D02*
X130887500Y-129650000D01*
X130887500Y-129650000D02*
X130862500Y-129625000D01*
D53*
%TO.N,+5V*%
X148600000Y-74950000D02*
X148300000Y-75250000D01*
X147200000Y-78425000D02*
X147200000Y-75287500D01*
X146825000Y-78800000D02*
X147200000Y-78425000D01*
X147200000Y-75287500D02*
X147237500Y-75250000D01*
X148300000Y-75250000D02*
X147237500Y-75250000D01*
X150025000Y-74950000D02*
X148600000Y-74950000D01*
%TO.N,GND*%
X109880000Y-99320000D02*
X109900000Y-99300000D01*
X98725000Y-83725000D02*
X99400000Y-84400000D01*
X114112500Y-88987500D02*
X114500000Y-88600000D01*
X108587500Y-69962500D02*
X108900000Y-69650000D01*
X108587500Y-70600000D02*
X108587500Y-69962500D01*
X168700000Y-77850000D02*
X170000000Y-77850000D01*
X149862500Y-71600000D02*
X149862500Y-70412500D01*
X145512500Y-75250000D02*
X144350000Y-75250000D01*
X149862500Y-70412500D02*
X149850000Y-70400000D01*
X108120000Y-96820000D02*
X108150000Y-96850000D01*
X143225000Y-69800000D02*
X143225000Y-71325000D01*
X168700000Y-79850000D02*
X170000000Y-79850000D01*
X158275000Y-69750000D02*
X158275000Y-71225000D01*
X112275000Y-74475000D02*
X112250000Y-74450000D01*
X143225000Y-71325000D02*
X143250000Y-71350000D01*
X106750000Y-86700000D02*
X106800000Y-86750000D01*
X168700000Y-75850000D02*
X170000000Y-75850000D01*
X113200000Y-88987500D02*
X114112500Y-88987500D01*
X174100000Y-72100000D02*
X172700000Y-72100000D01*
X111275000Y-72225000D02*
X111275000Y-73125000D01*
X150025000Y-74300000D02*
X151450000Y-74300000D01*
X106750000Y-85525000D02*
X106750000Y-86700000D01*
X158275000Y-71225000D02*
X158300000Y-71250000D01*
X137587500Y-79162500D02*
X137600000Y-79150000D01*
X150025000Y-76250000D02*
X148650000Y-76250000D01*
X143225000Y-77525000D02*
X143450000Y-77300000D01*
X143225000Y-78800000D02*
X143225000Y-77525000D01*
X106837500Y-82437500D02*
X106800000Y-82400000D01*
X136450000Y-79162500D02*
X137587500Y-79162500D01*
X106465000Y-98765000D02*
X106450000Y-98750000D01*
X145512500Y-73400000D02*
X144350000Y-73400000D01*
X133500000Y-79600000D02*
X134350000Y-79600000D01*
X111275000Y-73125000D02*
X111050000Y-73350000D01*
X112275000Y-75750000D02*
X112275000Y-74475000D01*
X106837500Y-83575000D02*
X106837500Y-82437500D01*
X130550000Y-79162500D02*
X129412500Y-79162500D01*
X109880000Y-100537500D02*
X109880000Y-99320000D01*
X107002500Y-96820000D02*
X108120000Y-96820000D01*
X134350000Y-79600000D02*
X134550000Y-79800000D01*
X98300000Y-83725000D02*
X98725000Y-83725000D01*
X129412500Y-79162500D02*
X129400000Y-79150000D01*
X106465000Y-100465000D02*
X106465000Y-98765000D01*
%TO.N,+3V3*%
X106787500Y-78770000D02*
X106787500Y-76760000D01*
X151450000Y-75600000D02*
X152850000Y-74200000D01*
X150025000Y-75600000D02*
X151450000Y-75600000D01*
X154675000Y-70975000D02*
X154675000Y-69750000D01*
X161875000Y-79850000D02*
X160650000Y-79850000D01*
X161875000Y-75850000D02*
X160700000Y-75850000D01*
X152850000Y-72862500D02*
X151587500Y-71600000D01*
X152850000Y-72862500D02*
X152850000Y-72800000D01*
X152850000Y-74200000D02*
X152850000Y-72862500D01*
X152850000Y-72800000D02*
X154675000Y-70975000D01*
X160700000Y-75850000D02*
X160650000Y-75800000D01*
X106787500Y-76760000D02*
X106787500Y-74750000D01*
X161875000Y-77850000D02*
X160650000Y-77850000D01*
%TO.N,Net-(U1-V_{REF})*%
X150025000Y-73650000D02*
X147487500Y-73650000D01*
X147487500Y-73650000D02*
X147237500Y-73400000D01*
X147237500Y-70212500D02*
X146825000Y-69800000D01*
X147237500Y-73400000D02*
X147237500Y-70212500D01*
%TO.N,/BUTTON_L*%
X119200000Y-104400000D02*
X130700000Y-92900000D01*
X119200000Y-124737500D02*
X119200000Y-104400000D01*
X119250000Y-126787500D02*
X119250000Y-124787500D01*
X130700000Y-92900000D02*
X130700000Y-89350000D01*
X119250000Y-133967500D02*
X119100000Y-134117500D01*
X119250000Y-124787500D02*
X119200000Y-124737500D01*
X119250000Y-126787500D02*
X119250000Y-133967500D01*
%TO.N,/BUTTON_R*%
X173200000Y-120950000D02*
X173200000Y-124587500D01*
X173880000Y-120270000D02*
X173200000Y-120950000D01*
X173250000Y-126637500D02*
X173250000Y-134017500D01*
X173250000Y-124637500D02*
X173200000Y-124587500D01*
X173250000Y-134017500D02*
X173150000Y-134117500D01*
X173880000Y-89350000D02*
X173880000Y-120270000D01*
X173250000Y-126637500D02*
X173250000Y-124637500D01*
%TO.N,Net-(MK1-+)*%
X165400000Y-71450000D02*
X166750000Y-70100000D01*
X170650000Y-70100000D02*
X178117500Y-70100000D01*
X170675000Y-71587500D02*
X170675000Y-70125000D01*
X164112500Y-71450000D02*
X165400000Y-71450000D01*
X178117500Y-70100000D02*
X183417500Y-75400000D01*
X166750000Y-70100000D02*
X170650000Y-70100000D01*
X170675000Y-70125000D02*
X170650000Y-70100000D01*
%TO.N,/MIC*%
X161200000Y-73650000D02*
X155750000Y-73650000D01*
X162387500Y-71450000D02*
X162387500Y-72462500D01*
X162387500Y-72462500D02*
X161200000Y-73650000D01*
%TO.N,Net-(U5-In2M)*%
X96197500Y-101190000D02*
X96197500Y-104752500D01*
X96197500Y-104752500D02*
X96000000Y-104950000D01*
%TO.N,Net-(C14-Pad1)*%
X112250000Y-83350000D02*
X111387500Y-82487500D01*
X108562500Y-83575000D02*
X110300000Y-83575000D01*
X110300000Y-83575000D02*
X111387500Y-82487500D01*
X112250000Y-84337500D02*
X112250000Y-83350000D01*
X108575000Y-83587500D02*
X108562500Y-83575000D01*
X111387500Y-82487500D02*
X111387500Y-80775000D01*
X108575000Y-85525000D02*
X108575000Y-83587500D01*
%TO.N,/Audio Out/AUDIO_OUT*%
X112250000Y-90862500D02*
X112250000Y-92200000D01*
X97350000Y-87850000D02*
X105177500Y-95677500D01*
X105177500Y-95677500D02*
X105177500Y-96820000D01*
X112250000Y-92200000D02*
X110700000Y-93750000D01*
X107105000Y-93750000D02*
X105177500Y-95677500D01*
X97350000Y-85600000D02*
X97350000Y-87850000D01*
X110700000Y-93750000D02*
X107105000Y-93750000D01*
X105177500Y-100447500D02*
X105195000Y-100465000D01*
X105177500Y-96820000D02*
X105177500Y-100447500D01*
X96250000Y-81142500D02*
X97350000Y-82242500D01*
X112250000Y-90862500D02*
X112250000Y-86412500D01*
X97350000Y-82242500D02*
X97350000Y-85600000D01*
%TO.N,Net-(JP3-A)*%
X106350000Y-114850000D02*
X106700000Y-115200000D01*
X102400000Y-111800000D02*
X104100000Y-111800000D01*
X102500000Y-122150000D02*
X102500000Y-134117500D01*
X106700000Y-117950000D02*
X102500000Y-122150000D01*
X105400000Y-114850000D02*
X106350000Y-114850000D01*
X105400000Y-113100000D02*
X105400000Y-114850000D01*
X97400000Y-116800000D02*
X102400000Y-111800000D01*
X104100000Y-111800000D02*
X105400000Y-113100000D01*
X104100000Y-110650000D02*
X104100000Y-111800000D01*
X97400000Y-119150000D02*
X97400000Y-116800000D01*
X106700000Y-115200000D02*
X106700000Y-117950000D01*
%TO.N,Net-(JP3-B)*%
X97400000Y-112650000D02*
X98850000Y-112650000D01*
X102150000Y-109350000D02*
X104100000Y-109350000D01*
X103925000Y-105415000D02*
X103925000Y-109175000D01*
X103925000Y-109175000D02*
X104100000Y-109350000D01*
X98850000Y-112650000D02*
X102150000Y-109350000D01*
%TO.N,Net-(C19-Pad1)*%
X111512500Y-114850000D02*
X111512500Y-116650000D01*
X111512500Y-116650000D02*
X111462500Y-116700000D01*
%TO.N,Net-(C20-Pad1)*%
X103575000Y-116650000D02*
X103625000Y-116700000D01*
X103575000Y-114850000D02*
X103575000Y-116650000D01*
%TO.N,Net-(C21-Pad1)*%
X98180000Y-80997500D02*
X98325000Y-81142500D01*
X98130000Y-76727500D02*
X98110000Y-76747500D01*
X98180000Y-78692500D02*
X98180000Y-80997500D01*
X98110000Y-76747500D02*
X98110000Y-78622500D01*
X98110000Y-78622500D02*
X98180000Y-78692500D01*
X98130000Y-74852500D02*
X98130000Y-76727500D01*
%TO.N,Net-(J1-CC2)*%
X132537500Y-77337500D02*
X132550000Y-77325000D01*
X130550000Y-77337500D02*
X132537500Y-77337500D01*
X132550000Y-75300000D02*
X132550000Y-77325000D01*
X132350000Y-72540000D02*
X132350000Y-75100000D01*
X132350000Y-75100000D02*
X132550000Y-75300000D01*
%TO.N,Net-(J1-CC1)*%
X134450000Y-77325000D02*
X134450000Y-75900000D01*
X133350000Y-74800000D02*
X133350000Y-72540000D01*
X134462500Y-77337500D02*
X134450000Y-77325000D01*
X134450000Y-75900000D02*
X133350000Y-74800000D01*
X136450000Y-77337500D02*
X134462500Y-77337500D01*
%TO.N,/MIC_LRCLK*%
X170950000Y-83050000D02*
X172629000Y-84729000D01*
X154200000Y-83050000D02*
X170950000Y-83050000D01*
X150025000Y-77550000D02*
X150025000Y-78875000D01*
X152550000Y-81400000D02*
X154200000Y-83050000D01*
X172629000Y-84729000D02*
X172629000Y-88061000D01*
X150025000Y-78875000D02*
X150050000Y-78900000D01*
X172629000Y-88061000D02*
X171340000Y-89350000D01*
D55*
%TO.N,/LA*%
X148301000Y-126499000D02*
X148301000Y-116851000D01*
X144862500Y-127725000D02*
X147075000Y-127725000D01*
X147329000Y-115879000D02*
X147329000Y-87961000D01*
X147329000Y-87961000D02*
X148480000Y-86810000D01*
X148301000Y-116851000D02*
X147329000Y-115879000D01*
X147075000Y-127725000D02*
X148301000Y-126499000D01*
%TO.N,/RG*%
X151162500Y-127725000D02*
X149925000Y-127725000D01*
X149925000Y-127725000D02*
X148702000Y-126502000D01*
X148702000Y-126502000D02*
X148702000Y-91668000D01*
X148702000Y-91668000D02*
X151020000Y-89350000D01*
%TO.N,/RB*%
X166260000Y-91760000D02*
X166260000Y-89350000D01*
X168600000Y-94100000D02*
X166260000Y-91760000D01*
X167525000Y-123475000D02*
X168600000Y-122400000D01*
X168600000Y-122400000D02*
X168600000Y-94100000D01*
X165162500Y-123475000D02*
X167525000Y-123475000D01*
%TO.N,/LG*%
X132089000Y-88661000D02*
X132750000Y-88000000D01*
X129575000Y-127725000D02*
X127600000Y-125750000D01*
X132089000Y-93461000D02*
X132089000Y-88661000D01*
X134590000Y-88000000D02*
X135780000Y-86810000D01*
X127600000Y-125750000D02*
X127600000Y-97950000D01*
X130862500Y-127725000D02*
X129575000Y-127725000D01*
X127600000Y-97950000D02*
X132089000Y-93461000D01*
X132750000Y-88000000D02*
X134590000Y-88000000D01*
%TO.N,/RC*%
X165162500Y-119175000D02*
X165162500Y-94412500D01*
X163720000Y-92970000D02*
X163720000Y-89350000D01*
X165162500Y-94412500D02*
X163720000Y-92970000D01*
%TO.N,/LB*%
X147900000Y-117950000D02*
X145900000Y-115950000D01*
X146875000Y-123425000D02*
X147900000Y-122400000D01*
X144862500Y-123425000D02*
X146875000Y-123425000D01*
X145900000Y-115950000D02*
X145900000Y-89390000D01*
X145900000Y-89390000D02*
X145940000Y-89350000D01*
X147900000Y-122400000D02*
X147900000Y-117950000D01*
D53*
%TO.N,/Audio Out/AUDIO_L*%
X110125000Y-70275000D02*
X111275000Y-70275000D01*
X110100000Y-70250000D02*
X110125000Y-70275000D01*
D55*
%TO.N,/RD*%
X154711000Y-88199000D02*
X156100000Y-86810000D01*
X154711000Y-92111000D02*
X154711000Y-88199000D01*
X155712500Y-119162500D02*
X155712500Y-93112500D01*
X155712500Y-93112500D02*
X154711000Y-92111000D01*
%TO.N,/LDP*%
X140312500Y-119125000D02*
X140312500Y-92437500D01*
X140312500Y-92437500D02*
X143400000Y-89350000D01*
D53*
%TO.N,/MIC_DOUT*%
X159650000Y-82000000D02*
X171450000Y-82000000D01*
X155750000Y-76900000D02*
X156548792Y-76900000D01*
X173880000Y-84430000D02*
X173880000Y-86810000D01*
X156548792Y-76900000D02*
X158600000Y-78951208D01*
X158600000Y-78951208D02*
X158600000Y-80950000D01*
X158600000Y-80950000D02*
X159650000Y-82000000D01*
X171450000Y-82000000D02*
X173880000Y-84430000D01*
%TO.N,/MIC_MCLK*%
X151550000Y-78850000D02*
X151550000Y-77400000D01*
X148250000Y-82150000D02*
X151550000Y-78850000D01*
X137031000Y-86329818D02*
X141210818Y-82150000D01*
X141210818Y-82150000D02*
X148250000Y-82150000D01*
X135780000Y-89350000D02*
X137031000Y-88099000D01*
X151550000Y-77400000D02*
X151050000Y-76900000D01*
X137031000Y-88099000D02*
X137031000Y-86329818D01*
X151050000Y-76900000D02*
X150025000Y-76900000D01*
D55*
%TO.N,/LC*%
X144650000Y-88100000D02*
X145940000Y-86810000D01*
X144862500Y-119125000D02*
X144862500Y-91212500D01*
X144650000Y-91000000D02*
X144650000Y-88100000D01*
X144862500Y-91212500D02*
X144650000Y-91000000D01*
%TO.N,/LE*%
X139471000Y-87961000D02*
X138320000Y-86810000D01*
X139471000Y-89826760D02*
X139471000Y-87961000D01*
X130862500Y-98435260D02*
X139471000Y-89826760D01*
X130862500Y-119125000D02*
X130862500Y-98435260D01*
%TO.N,/LF*%
X133240000Y-93960000D02*
X133240000Y-89350000D01*
X130862500Y-123425000D02*
X129675000Y-123425000D01*
X129675000Y-123425000D02*
X128951000Y-122701000D01*
X128951000Y-122701000D02*
X128951000Y-98249000D01*
X128951000Y-98249000D02*
X133240000Y-93960000D01*
%TO.N,/RA*%
X170000000Y-88150000D02*
X171340000Y-86810000D01*
X167075000Y-127775000D02*
X170000000Y-124850000D01*
X170000000Y-124850000D02*
X170000000Y-88150000D01*
X165162500Y-127775000D02*
X167075000Y-127775000D01*
%TO.N,/RF*%
X151162500Y-123525000D02*
X150075000Y-123525000D01*
X149650000Y-93700000D02*
X152350000Y-91000000D01*
X152350000Y-88020000D02*
X153560000Y-86810000D01*
X152350000Y-91000000D02*
X152350000Y-88020000D01*
X149650000Y-123100000D02*
X149650000Y-93700000D01*
X150075000Y-123525000D02*
X149650000Y-123100000D01*
%TO.N,/LD*%
X135412500Y-119125000D02*
X135412500Y-94797500D01*
X135412500Y-94797500D02*
X140860000Y-89350000D01*
D53*
%TO.N,/Audio Out/AUDIO_R*%
X96300000Y-73150000D02*
X96300000Y-74847500D01*
X96300000Y-74847500D02*
X96305000Y-74852500D01*
%TO.N,/MIC_BCLK*%
X148750000Y-82900000D02*
X142750000Y-82900000D01*
X142750000Y-82900000D02*
X140860000Y-84790000D01*
X155750000Y-77550000D02*
X154100000Y-77550000D01*
X154100000Y-77550000D02*
X148750000Y-82900000D01*
X140860000Y-84790000D02*
X140860000Y-86810000D01*
D55*
%TO.N,/RE*%
X151162500Y-94437500D02*
X153560000Y-92040000D01*
X153560000Y-92040000D02*
X153560000Y-89350000D01*
X151162500Y-119175000D02*
X151162500Y-94437500D01*
%TO.N,/RDP*%
X157489000Y-87961000D02*
X158640000Y-86810000D01*
X160600000Y-119175000D02*
X160600000Y-95400000D01*
X157489000Y-92289000D02*
X157489000Y-87961000D01*
X160600000Y-95400000D02*
X157489000Y-92289000D01*
%TO.N,Net-(J3-Pad4)*%
X157250000Y-125350000D02*
X157850000Y-125350000D01*
X156750000Y-130850000D02*
X156750000Y-125850000D01*
X157225000Y-134375000D02*
X157225000Y-131325000D01*
X157225000Y-131325000D02*
X156750000Y-130850000D01*
X156750000Y-125850000D02*
X157250000Y-125350000D01*
%TO.N,Net-(J3-Pad2)*%
X154250000Y-131050000D02*
X154250000Y-125650000D01*
X154250000Y-125650000D02*
X154550000Y-125350000D01*
X154550000Y-125350000D02*
X155350000Y-125350000D01*
X154725000Y-131525000D02*
X154250000Y-131050000D01*
X154725000Y-134375000D02*
X154725000Y-131525000D01*
%TO.N,Net-(J3-Pad10)*%
X164725000Y-132875000D02*
X162850000Y-131000000D01*
X164725000Y-134375000D02*
X164725000Y-132875000D01*
X162850000Y-131000000D02*
X162850000Y-129600000D01*
%TO.N,Net-(J3-Pad3)*%
X155975000Y-134375000D02*
X155975000Y-131975000D01*
X155975000Y-131975000D02*
X155350000Y-131350000D01*
X155350000Y-131350000D02*
X155350000Y-129600000D01*
%TO.N,Net-(J3-Pad7)*%
X160975000Y-134375000D02*
X160975000Y-132675000D01*
X159500000Y-125350000D02*
X160350000Y-125350000D01*
X159200000Y-130900000D02*
X159200000Y-125650000D01*
X159200000Y-125650000D02*
X159500000Y-125350000D01*
X160975000Y-132675000D02*
X159200000Y-130900000D01*
%TO.N,Net-(J3-Pad8)*%
X160350000Y-131050000D02*
X160350000Y-129600000D01*
X162225000Y-132925000D02*
X160350000Y-131050000D01*
X162225000Y-134375000D02*
X162225000Y-132925000D01*
%TO.N,Net-(J3-Pad5)*%
X158475000Y-134375000D02*
X158475000Y-131975000D01*
X157850000Y-131350000D02*
X157850000Y-129600000D01*
X158475000Y-131975000D02*
X157850000Y-131350000D01*
%TO.N,Net-(J3-Pad9)*%
X163475000Y-132775000D02*
X161650000Y-130950000D01*
X162000000Y-125350000D02*
X162850000Y-125350000D01*
X161650000Y-125700000D02*
X162000000Y-125350000D01*
X163475000Y-134375000D02*
X163475000Y-132775000D01*
X161650000Y-130950000D02*
X161650000Y-125700000D01*
%TO.N,Net-(J4-Pad2)*%
X134400000Y-134375000D02*
X134400000Y-132150000D01*
X134050000Y-131800000D02*
X134050000Y-126287500D01*
X134400000Y-132150000D02*
X134050000Y-131800000D01*
X134050000Y-126287500D02*
X135050000Y-125287500D01*
%TO.N,Net-(J4-Pad3)*%
X135650000Y-132250000D02*
X135050000Y-131650000D01*
X135050000Y-131650000D02*
X135050000Y-129537500D01*
X135650000Y-134375000D02*
X135650000Y-132250000D01*
%TO.N,Net-(J4-Pad7)*%
X139050000Y-125700000D02*
X139462500Y-125287500D01*
X140650000Y-132050000D02*
X139050000Y-130450000D01*
X139050000Y-130450000D02*
X139050000Y-125700000D01*
X139462500Y-125287500D02*
X140050000Y-125287500D01*
X140650000Y-134375000D02*
X140650000Y-132050000D01*
%TO.N,Net-(J4-Pad5)*%
X137550000Y-131500000D02*
X137550000Y-129537500D01*
X138150000Y-132100000D02*
X137550000Y-131500000D01*
X138150000Y-134375000D02*
X138150000Y-132100000D01*
%TO.N,Net-(J4-Pad10)*%
X144400000Y-132750000D02*
X142550000Y-130900000D01*
X144400000Y-134375000D02*
X144400000Y-132750000D01*
X142550000Y-130900000D02*
X142550000Y-129537500D01*
%TO.N,Net-(J4-Pad8)*%
X141900000Y-132600000D02*
X140050000Y-130750000D01*
X141900000Y-134375000D02*
X141900000Y-132600000D01*
X140050000Y-130750000D02*
X140050000Y-129537500D01*
%TO.N,Net-(J4-Pad4)*%
X136450000Y-131200000D02*
X136450000Y-125700000D01*
X136900000Y-131650000D02*
X136450000Y-131200000D01*
X136862500Y-125287500D02*
X137550000Y-125287500D01*
X136450000Y-125700000D02*
X136862500Y-125287500D01*
X136900000Y-134375000D02*
X136900000Y-131650000D01*
%TO.N,Net-(J4-Pad9)*%
X143150000Y-134375000D02*
X143150000Y-132067100D01*
X141500000Y-130417100D02*
X141500000Y-125650000D01*
X141862500Y-125287500D02*
X142550000Y-125287500D01*
X143150000Y-132067100D02*
X141500000Y-130417100D01*
X141500000Y-125650000D02*
X141862500Y-125287500D01*
D53*
%TO.N,Net-(JP4-B)*%
X108800000Y-122800000D02*
X105800000Y-122800000D01*
X105800000Y-122800000D02*
X105800000Y-125100000D01*
X105800000Y-125100000D02*
X107500000Y-126800000D01*
X107500000Y-126800000D02*
X107500000Y-134117500D01*
D55*
%TO.N,Net-(Q1-D)*%
X160350000Y-123500000D02*
X162475000Y-121375000D01*
X162475000Y-121375000D02*
X162475000Y-120125000D01*
X160350000Y-123525000D02*
X160350000Y-123500000D01*
%TO.N,Net-(Q2-D)*%
X156350000Y-126775000D02*
X155350000Y-127775000D01*
X156350000Y-124900000D02*
X156350000Y-126775000D01*
X154746366Y-124450000D02*
X155900000Y-124450000D01*
X155900000Y-124450000D02*
X156350000Y-124900000D01*
X153037500Y-126158866D02*
X154746366Y-124450000D01*
X153037500Y-128675000D02*
X153037500Y-126158866D01*
%TO.N,Net-(Q3-D)*%
X153037500Y-124475000D02*
X153987500Y-123525000D01*
X153987500Y-123525000D02*
X155350000Y-123525000D01*
%TO.N,Net-(Q4-D)*%
X153037500Y-120125000D02*
X153037500Y-121137500D01*
X154100000Y-122200000D02*
X156525000Y-122200000D01*
X153037500Y-121137500D02*
X154100000Y-122200000D01*
X156525000Y-122200000D02*
X157850000Y-123525000D01*
%TO.N,Net-(Q5-D)*%
X158612500Y-120112500D02*
X157587500Y-120112500D01*
X158800000Y-120300000D02*
X158612500Y-120112500D01*
X158800000Y-126825000D02*
X158800000Y-120300000D01*
X157850000Y-127775000D02*
X158800000Y-126825000D01*
%TO.N,Net-(Q6-D)*%
X164475000Y-120125000D02*
X167037500Y-120125000D01*
X161250000Y-126875000D02*
X161250000Y-123350000D01*
X161250000Y-123350000D02*
X164475000Y-120125000D01*
X160350000Y-127775000D02*
X161250000Y-126875000D01*
%TO.N,Net-(Q7-D)*%
X163750000Y-124425000D02*
X167037500Y-124425000D01*
X162850000Y-123525000D02*
X163750000Y-124425000D01*
%TO.N,Net-(Q8-D)*%
X162850000Y-127775000D02*
X162975000Y-127775000D01*
X162975000Y-127775000D02*
X163925000Y-128725000D01*
X163925000Y-128725000D02*
X167037500Y-128725000D01*
%TO.N,Net-(Q9-D)*%
X142187500Y-121212500D02*
X142187500Y-120075000D01*
X140050000Y-123462500D02*
X140050000Y-123350000D01*
X140050000Y-123350000D02*
X142187500Y-121212500D01*
%TO.N,Net-(Q10-D)*%
X135637500Y-127712500D02*
X135050000Y-127712500D01*
X136050000Y-124700000D02*
X136050000Y-127300000D01*
X132737500Y-128675000D02*
X132737500Y-126344366D01*
X136050000Y-127300000D02*
X135637500Y-127712500D01*
X134582866Y-124499000D02*
X135849000Y-124499000D01*
X135849000Y-124499000D02*
X136050000Y-124700000D01*
X132737500Y-126344366D02*
X134582866Y-124499000D01*
%TO.N,Net-(Q11-D)*%
X133650000Y-123462500D02*
X132737500Y-124375000D01*
X135050000Y-123462500D02*
X133650000Y-123462500D01*
%TO.N,Net-(Q12-D)*%
X137550000Y-123462500D02*
X137550000Y-122950000D01*
X136900000Y-122300000D02*
X134100000Y-122300000D01*
X134100000Y-122300000D02*
X132737500Y-120937500D01*
X137550000Y-122950000D02*
X136900000Y-122300000D01*
X132737500Y-120937500D02*
X132737500Y-120075000D01*
%TO.N,Net-(Q13-D)*%
X138550000Y-121350000D02*
X137287500Y-120087500D01*
X137287500Y-120087500D02*
X137287500Y-120075000D01*
X137550000Y-127050000D02*
X138550000Y-126050000D01*
X137550000Y-127712500D02*
X137550000Y-127050000D01*
X138550000Y-126050000D02*
X138550000Y-121350000D01*
%TO.N,Net-(Q14-D)*%
X140050000Y-127050000D02*
X141050000Y-126050000D01*
X144225000Y-120075000D02*
X146737500Y-120075000D01*
X140050000Y-127712500D02*
X140050000Y-127050000D01*
X141050000Y-126050000D02*
X141050000Y-123250000D01*
X141050000Y-123250000D02*
X144225000Y-120075000D01*
%TO.N,Net-(Q15-D)*%
X143675000Y-124375000D02*
X146737500Y-124375000D01*
X142550000Y-123462500D02*
X142762500Y-123462500D01*
X142762500Y-123462500D02*
X143675000Y-124375000D01*
%TO.N,Net-(Q16-D)*%
X142662500Y-127712500D02*
X143625000Y-128675000D01*
X142550000Y-127712500D02*
X142662500Y-127712500D01*
X143625000Y-128675000D02*
X146737500Y-128675000D01*
D53*
%TO.N,Net-(R4-Pad1)*%
X124050000Y-134067500D02*
X124100000Y-134117500D01*
X124050000Y-126700000D02*
X124050000Y-134067500D01*
%TO.N,Net-(U1-MD0)*%
X163700000Y-79850000D02*
X166875000Y-79850000D01*
X157050000Y-76250000D02*
X159700000Y-78900000D01*
X159700000Y-78900000D02*
X162750000Y-78900000D01*
X162750000Y-78900000D02*
X163700000Y-79850000D01*
X155750000Y-76250000D02*
X157050000Y-76250000D01*
%TO.N,Net-(R8-Pad1)*%
X178050000Y-126550000D02*
X178050000Y-134017500D01*
X178050000Y-134017500D02*
X178150000Y-134117500D01*
%TO.N,Net-(U1-MD1)*%
X155750000Y-75600000D02*
X157800000Y-75600000D01*
X157800000Y-75600000D02*
X159174000Y-76974000D01*
X159174000Y-76974000D02*
X162824000Y-76974000D01*
X163700000Y-77850000D02*
X166875000Y-77850000D01*
X162824000Y-76974000D02*
X163700000Y-77850000D01*
%TO.N,Net-(U1-FMT)*%
X162800000Y-74950000D02*
X163700000Y-75850000D01*
X155750000Y-74950000D02*
X162800000Y-74950000D01*
X163700000Y-75850000D02*
X166875000Y-75850000D01*
%TO.N,Net-(U3-A_{1})*%
X113100000Y-72225000D02*
X113100000Y-70275000D01*
%TO.N,Net-(U3-Y_{1})*%
X112925000Y-80487500D02*
X113212500Y-80775000D01*
X112925000Y-78410000D02*
X112925000Y-80487500D01*
%TO.N,Net-(U2-K)*%
X170662500Y-73425000D02*
X170675000Y-73412500D01*
X174100000Y-73400000D02*
X170687500Y-73400000D01*
X170687500Y-73400000D02*
X170675000Y-73412500D01*
X168700000Y-73425000D02*
X170662500Y-73425000D01*
%TO.N,Net-(U3-V_{CC})*%
X108587500Y-74725000D02*
X108612500Y-74750000D01*
X108587500Y-72500000D02*
X108587500Y-74725000D01*
X108612500Y-78770000D02*
X108612500Y-76760000D01*
X112275000Y-77598708D02*
X111577292Y-76901000D01*
X108612500Y-80780000D02*
X108612500Y-78770000D01*
X108612500Y-76760000D02*
X108612500Y-74750000D01*
X108753500Y-76901000D02*
X108612500Y-76760000D01*
X112275000Y-78410000D02*
X112275000Y-77598708D01*
X111577292Y-76901000D02*
X108753500Y-76901000D01*
%TO.N,Net-(JP5-B)*%
X107650000Y-119650000D02*
X105800000Y-121500000D01*
X106465000Y-105415000D02*
X106465000Y-109065000D01*
X106465000Y-109065000D02*
X109687500Y-112287500D01*
X107650000Y-115300000D02*
X107650000Y-119650000D01*
X108100000Y-114850000D02*
X107650000Y-115300000D01*
X109687500Y-112287500D02*
X109687500Y-114850000D01*
X109687500Y-114850000D02*
X108100000Y-114850000D01*
%TD*%
%TA.AperFunction,Conductor*%
%TO.N,+5V*%
G36*
X134743039Y-66069685D02*
G01*
X134788794Y-66122489D01*
X134800000Y-66174000D01*
X134800000Y-70408817D01*
X134780315Y-70475856D01*
X134779102Y-70477708D01*
X134713371Y-70576080D01*
X134713364Y-70576093D01*
X134637950Y-70758160D01*
X134637947Y-70758170D01*
X134599500Y-70951456D01*
X134599500Y-72416000D01*
X134596949Y-72424685D01*
X134598238Y-72433647D01*
X134587259Y-72457687D01*
X134579815Y-72483039D01*
X134572974Y-72488966D01*
X134569213Y-72497203D01*
X134546978Y-72511492D01*
X134527011Y-72528794D01*
X134516496Y-72531081D01*
X134510435Y-72534977D01*
X134475500Y-72540000D01*
X134324500Y-72540000D01*
X134257461Y-72520315D01*
X134211706Y-72467511D01*
X134200500Y-72416000D01*
X134200500Y-71860408D01*
X134200500Y-71860406D01*
X134194315Y-71792343D01*
X134145512Y-71635730D01*
X134137881Y-71623106D01*
X134120000Y-71558959D01*
X134120000Y-71240000D01*
X134119999Y-71239999D01*
X134113436Y-71240000D01*
X134113417Y-71240001D01*
X134042897Y-71246408D01*
X134042889Y-71246409D01*
X133883327Y-71296131D01*
X133813467Y-71297283D01*
X133809547Y-71296132D01*
X133746870Y-71276601D01*
X133647657Y-71245685D01*
X133579594Y-71239500D01*
X133120406Y-71239500D01*
X133052343Y-71245685D01*
X133052341Y-71245685D01*
X133052338Y-71245686D01*
X132888570Y-71296719D01*
X132887720Y-71293991D01*
X132831639Y-71301722D01*
X132811695Y-71295866D01*
X132811430Y-71296719D01*
X132647661Y-71245686D01*
X132647659Y-71245685D01*
X132647657Y-71245685D01*
X132579594Y-71239500D01*
X132120406Y-71239500D01*
X132052343Y-71245685D01*
X132052339Y-71245686D01*
X132052335Y-71245687D01*
X131890452Y-71296132D01*
X131820592Y-71297284D01*
X131816672Y-71296132D01*
X131657105Y-71246409D01*
X131657106Y-71246409D01*
X131586572Y-71240000D01*
X131580000Y-71240000D01*
X131580000Y-71558959D01*
X131562119Y-71623106D01*
X131554487Y-71635730D01*
X131505686Y-71792338D01*
X131505685Y-71792341D01*
X131505685Y-71792343D01*
X131499500Y-71860406D01*
X131499500Y-73219594D01*
X131505685Y-73287657D01*
X131505686Y-73287662D01*
X131505687Y-73287664D01*
X131554485Y-73444263D01*
X131554486Y-73444267D01*
X131554488Y-73444270D01*
X131562117Y-73456890D01*
X131580000Y-73521039D01*
X131580000Y-73839999D01*
X131613181Y-73873180D01*
X131646666Y-73934503D01*
X131649500Y-73960861D01*
X131649500Y-74452160D01*
X131629815Y-74519199D01*
X131594978Y-74554867D01*
X128350000Y-76749999D01*
X128350000Y-80650000D01*
X129351281Y-81750000D01*
X129350000Y-81750000D01*
X128549753Y-83782625D01*
X122950000Y-82500000D01*
X122950000Y-78552445D01*
X122969685Y-78485406D01*
X123022489Y-78439651D01*
X123091647Y-78429707D01*
X123139097Y-78446906D01*
X123280875Y-78534356D01*
X123280880Y-78534358D01*
X123447302Y-78589505D01*
X123447309Y-78589506D01*
X123550019Y-78599999D01*
X124849999Y-78599999D01*
X125350000Y-78599999D01*
X126649972Y-78599999D01*
X126649986Y-78599998D01*
X126752697Y-78589505D01*
X126919119Y-78534358D01*
X126919124Y-78534356D01*
X127068345Y-78442315D01*
X127192315Y-78318345D01*
X127284356Y-78169124D01*
X127284358Y-78169119D01*
X127339505Y-78002697D01*
X127339506Y-78002690D01*
X127349999Y-77899986D01*
X127350000Y-77899973D01*
X127350000Y-77550000D01*
X125350000Y-77550000D01*
X125350000Y-78599999D01*
X124849999Y-78599999D01*
X124850000Y-78599998D01*
X124850000Y-77050000D01*
X125350000Y-77050000D01*
X127349999Y-77050000D01*
X127349999Y-76700028D01*
X127349998Y-76700013D01*
X127339505Y-76597302D01*
X127284358Y-76430880D01*
X127284356Y-76430875D01*
X127192315Y-76281654D01*
X127068345Y-76157684D01*
X126919124Y-76065643D01*
X126919119Y-76065641D01*
X126752697Y-76010494D01*
X126752690Y-76010493D01*
X126649986Y-76000000D01*
X125350000Y-76000000D01*
X125350000Y-77050000D01*
X124850000Y-77050000D01*
X124850000Y-76000000D01*
X123550028Y-76000000D01*
X123550012Y-76000001D01*
X123447302Y-76010494D01*
X123280880Y-76065641D01*
X123280871Y-76065645D01*
X123139096Y-76153093D01*
X123071704Y-76171533D01*
X123005040Y-76150610D01*
X122960271Y-76096968D01*
X122950000Y-76047554D01*
X122950000Y-73009708D01*
X122950500Y-72999540D01*
X122950500Y-72808543D01*
X127529499Y-72808543D01*
X127567947Y-73001829D01*
X127567950Y-73001839D01*
X127643364Y-73183907D01*
X127643371Y-73183920D01*
X127752860Y-73347781D01*
X127752863Y-73347785D01*
X127892214Y-73487136D01*
X127892218Y-73487139D01*
X128056079Y-73596628D01*
X128056092Y-73596635D01*
X128238160Y-73672049D01*
X128238165Y-73672051D01*
X128238169Y-73672051D01*
X128238170Y-73672052D01*
X128431456Y-73710500D01*
X128431459Y-73710500D01*
X128628543Y-73710500D01*
X128796256Y-73677139D01*
X128821835Y-73672051D01*
X129003914Y-73596632D01*
X129120591Y-73518670D01*
X129187267Y-73497793D01*
X129254647Y-73516277D01*
X129295018Y-73556673D01*
X129302032Y-73568044D01*
X129421955Y-73687967D01*
X129421959Y-73687970D01*
X129566294Y-73776998D01*
X129566297Y-73776999D01*
X129566303Y-73777003D01*
X129727292Y-73830349D01*
X129826655Y-73840500D01*
X130373344Y-73840499D01*
X130373352Y-73840498D01*
X130373355Y-73840498D01*
X130440980Y-73833590D01*
X130472708Y-73830349D01*
X130633697Y-73777003D01*
X130666735Y-73756624D01*
X130734125Y-73738183D01*
X130795983Y-73756045D01*
X130840603Y-73783018D01*
X130840606Y-73783020D01*
X131002894Y-73833590D01*
X131002893Y-73833590D01*
X131073408Y-73839998D01*
X131073426Y-73839999D01*
X131079999Y-73839998D01*
X131080000Y-73839998D01*
X131080000Y-72753812D01*
X131082383Y-72729620D01*
X131100500Y-72638543D01*
X131100500Y-71001456D01*
X131062052Y-70808170D01*
X131062051Y-70808169D01*
X131062051Y-70808165D01*
X131041343Y-70758170D01*
X130986635Y-70626092D01*
X130986628Y-70626079D01*
X130877139Y-70462218D01*
X130877136Y-70462214D01*
X130737785Y-70322863D01*
X130737781Y-70322860D01*
X130573920Y-70213371D01*
X130573907Y-70213364D01*
X130391839Y-70137950D01*
X130391829Y-70137947D01*
X130198543Y-70099500D01*
X130198541Y-70099500D01*
X130001459Y-70099500D01*
X130001457Y-70099500D01*
X129808170Y-70137947D01*
X129808160Y-70137950D01*
X129626092Y-70213364D01*
X129626079Y-70213371D01*
X129462218Y-70322860D01*
X129462214Y-70322863D01*
X129322863Y-70462214D01*
X129322860Y-70462218D01*
X129213371Y-70626079D01*
X129213364Y-70626092D01*
X129137950Y-70808160D01*
X129137947Y-70808170D01*
X129099296Y-71002477D01*
X129066911Y-71064388D01*
X129006195Y-71098962D01*
X128936425Y-71095221D01*
X128930236Y-71092850D01*
X128821835Y-71047949D01*
X128821829Y-71047947D01*
X128628543Y-71009500D01*
X128628541Y-71009500D01*
X128431459Y-71009500D01*
X128431457Y-71009500D01*
X128238170Y-71047947D01*
X128238160Y-71047950D01*
X128056092Y-71123364D01*
X128056079Y-71123371D01*
X127892218Y-71232860D01*
X127892214Y-71232863D01*
X127752863Y-71372214D01*
X127752860Y-71372218D01*
X127643371Y-71536079D01*
X127643364Y-71536092D01*
X127567950Y-71718160D01*
X127567947Y-71718170D01*
X127529500Y-71911456D01*
X127529500Y-71911459D01*
X127529500Y-72808541D01*
X127529500Y-72808543D01*
X127529499Y-72808543D01*
X122950500Y-72808543D01*
X122950500Y-72383065D01*
X122970185Y-72316026D01*
X123022989Y-72270271D01*
X123092147Y-72260327D01*
X123113504Y-72265359D01*
X123262348Y-72314680D01*
X123363351Y-72324999D01*
X123950000Y-72324999D01*
X124036640Y-72324999D01*
X124036654Y-72324998D01*
X124137652Y-72314680D01*
X124301300Y-72260453D01*
X124301311Y-72260448D01*
X124448034Y-72169947D01*
X124448038Y-72169944D01*
X124569944Y-72048038D01*
X124569947Y-72048034D01*
X124660448Y-71901311D01*
X124660454Y-71901298D01*
X124672030Y-71866364D01*
X124672030Y-71866363D01*
X124714680Y-71737651D01*
X124724999Y-71636654D01*
X124725000Y-71636641D01*
X124725000Y-71600000D01*
X123950000Y-71600000D01*
X123950000Y-72324999D01*
X123363351Y-72324999D01*
X123450000Y-72324998D01*
X123450000Y-71100000D01*
X123950000Y-71100000D01*
X124724999Y-71100000D01*
X124724999Y-71063360D01*
X124724998Y-71063345D01*
X124714680Y-70962347D01*
X124660453Y-70798699D01*
X124660448Y-70798688D01*
X124569947Y-70651965D01*
X124569944Y-70651961D01*
X124448038Y-70530055D01*
X124448034Y-70530052D01*
X124301311Y-70439551D01*
X124301300Y-70439546D01*
X124137652Y-70385319D01*
X124036654Y-70375000D01*
X123950000Y-70375000D01*
X123950000Y-71100000D01*
X123450000Y-71100000D01*
X123450000Y-70375000D01*
X123449999Y-70374999D01*
X123363360Y-70375000D01*
X123363343Y-70375001D01*
X123262346Y-70385319D01*
X123113503Y-70434640D01*
X123043675Y-70437041D01*
X122983633Y-70401309D01*
X122952441Y-70338789D01*
X122950500Y-70316934D01*
X122950500Y-69700469D01*
X122950000Y-69690291D01*
X122950000Y-69008543D01*
X127529499Y-69008543D01*
X127567947Y-69201829D01*
X127567950Y-69201839D01*
X127643364Y-69383907D01*
X127643371Y-69383920D01*
X127752860Y-69547781D01*
X127752863Y-69547785D01*
X127892214Y-69687136D01*
X127892218Y-69687139D01*
X128056079Y-69796628D01*
X128056092Y-69796635D01*
X128238160Y-69872049D01*
X128238165Y-69872051D01*
X128238169Y-69872051D01*
X128238170Y-69872052D01*
X128431456Y-69910500D01*
X128431459Y-69910500D01*
X128628543Y-69910500D01*
X128758582Y-69884632D01*
X128821835Y-69872051D01*
X129003914Y-69796632D01*
X129167782Y-69687139D01*
X129307139Y-69547782D01*
X129416632Y-69383914D01*
X129492051Y-69201835D01*
X129530500Y-69008541D01*
X129530500Y-68111459D01*
X129530500Y-68111456D01*
X129492052Y-67918170D01*
X129492051Y-67918169D01*
X129492051Y-67918165D01*
X129492049Y-67918160D01*
X129416635Y-67736092D01*
X129416628Y-67736079D01*
X129307139Y-67572218D01*
X129307136Y-67572214D01*
X129167785Y-67432863D01*
X129167781Y-67432860D01*
X129003920Y-67323371D01*
X129003907Y-67323364D01*
X128821839Y-67247950D01*
X128821829Y-67247947D01*
X128628543Y-67209500D01*
X128628541Y-67209500D01*
X128431459Y-67209500D01*
X128431457Y-67209500D01*
X128238170Y-67247947D01*
X128238160Y-67247950D01*
X128056092Y-67323364D01*
X128056079Y-67323371D01*
X127892218Y-67432860D01*
X127892214Y-67432863D01*
X127752863Y-67572214D01*
X127752860Y-67572218D01*
X127643371Y-67736079D01*
X127643364Y-67736092D01*
X127567950Y-67918160D01*
X127567947Y-67918170D01*
X127529500Y-68111456D01*
X127529500Y-68111459D01*
X127529500Y-69008541D01*
X127529500Y-69008543D01*
X127529499Y-69008543D01*
X122950000Y-69008543D01*
X122950000Y-66174000D01*
X122969685Y-66106961D01*
X123022489Y-66061206D01*
X123074000Y-66050000D01*
X134676000Y-66050000D01*
X134743039Y-66069685D01*
G37*
%TD.AperFunction*%
%TD*%
%TA.AperFunction,Conductor*%
%TO.N,+5V*%
G36*
X126976739Y-88099684D02*
G01*
X126967893Y-88100000D01*
X126850000Y-88100000D01*
X126982735Y-88097447D01*
X126976739Y-88099684D01*
G37*
%TD.AperFunction*%
%TA.AperFunction,Conductor*%
G36*
X147018039Y-78819685D02*
G01*
X147063794Y-78872489D01*
X147075000Y-78924000D01*
X147075000Y-80061729D01*
X147209807Y-80106256D01*
X147222801Y-80115234D01*
X147237955Y-80119684D01*
X147250954Y-80134686D01*
X147267290Y-80145973D01*
X147273368Y-80160552D01*
X147283710Y-80172488D01*
X147286535Y-80192137D01*
X147294175Y-80210463D01*
X147291406Y-80226012D01*
X147293654Y-80241646D01*
X147285406Y-80259706D01*
X147281926Y-80279250D01*
X147271190Y-80290833D01*
X147264629Y-80305202D01*
X147259700Y-80310563D01*
X146185737Y-81412064D01*
X146124843Y-81446323D01*
X146096953Y-81449500D01*
X141141821Y-81449500D01*
X141040032Y-81469747D01*
X141040026Y-81469748D01*
X141033409Y-81471065D01*
X141006489Y-81476420D01*
X140969150Y-81491886D01*
X140967318Y-81492644D01*
X140962141Y-81494275D01*
X140952762Y-81494457D01*
X140924897Y-81500000D01*
X140699999Y-81500000D01*
X136986105Y-85114858D01*
X136924335Y-85147511D01*
X136899617Y-85150000D01*
X131900000Y-85150000D01*
X131900000Y-84550000D01*
X128549753Y-83782625D01*
X129350000Y-81750000D01*
X135100000Y-81750000D01*
X138775354Y-80061324D01*
X138827124Y-80050000D01*
X141881484Y-80050000D01*
X141920488Y-80056294D01*
X142022203Y-80089999D01*
X142124991Y-80100500D01*
X144325008Y-80100499D01*
X144427797Y-80089999D01*
X144529512Y-80056294D01*
X144568516Y-80050000D01*
X144799994Y-80050000D01*
X144800000Y-80050000D01*
X145352578Y-79999765D01*
X145421122Y-80013299D01*
X145428898Y-80017717D01*
X145455871Y-80034354D01*
X145455880Y-80034358D01*
X145622302Y-80089505D01*
X145622309Y-80089506D01*
X145725019Y-80099999D01*
X146574999Y-80099999D01*
X146575000Y-80099998D01*
X146575000Y-78924000D01*
X146594685Y-78856961D01*
X146647489Y-78811206D01*
X146699000Y-78800000D01*
X146951000Y-78800000D01*
X147018039Y-78819685D01*
G37*
%TD.AperFunction*%
%TD*%
%TA.AperFunction,Conductor*%
%TO.N,+5V*%
G36*
X131900000Y-84550000D02*
G01*
X131900000Y-85150000D01*
X131900000Y-85801450D01*
X131880315Y-85868489D01*
X131827511Y-85914244D01*
X131758353Y-85924188D01*
X131694797Y-85895163D01*
X131688319Y-85889131D01*
X131579464Y-85780276D01*
X131579459Y-85780272D01*
X131407557Y-85655379D01*
X131218215Y-85558903D01*
X131016124Y-85493241D01*
X130950000Y-85482768D01*
X130950000Y-86376988D01*
X130892993Y-86344075D01*
X130765826Y-86310000D01*
X130634174Y-86310000D01*
X130507007Y-86344075D01*
X130450000Y-86376988D01*
X130450000Y-85482768D01*
X130449999Y-85482768D01*
X130383875Y-85493241D01*
X130181784Y-85558903D01*
X129992442Y-85655379D01*
X129820540Y-85780272D01*
X129820535Y-85780276D01*
X129670276Y-85930535D01*
X129670272Y-85930540D01*
X129545377Y-86102444D01*
X129540484Y-86112048D01*
X129492509Y-86162844D01*
X129424688Y-86179638D01*
X129358553Y-86157100D01*
X129319516Y-86112048D01*
X129314622Y-86102444D01*
X129189727Y-85930540D01*
X129189723Y-85930535D01*
X129039464Y-85780276D01*
X129039459Y-85780272D01*
X128867557Y-85655379D01*
X128678215Y-85558903D01*
X128476124Y-85493241D01*
X128410000Y-85482768D01*
X128410000Y-86376988D01*
X128352993Y-86344075D01*
X128225826Y-86310000D01*
X128094174Y-86310000D01*
X127967007Y-86344075D01*
X127910000Y-86376988D01*
X127910000Y-85482768D01*
X127909999Y-85482768D01*
X127843875Y-85493241D01*
X127641784Y-85558903D01*
X127452442Y-85655379D01*
X127280540Y-85780272D01*
X127280535Y-85780276D01*
X127130276Y-85930535D01*
X127130272Y-85930540D01*
X127005379Y-86102442D01*
X126908904Y-86291782D01*
X126843242Y-86493870D01*
X126843242Y-86493873D01*
X126832769Y-86560000D01*
X127726988Y-86560000D01*
X127694075Y-86617007D01*
X127660000Y-86744174D01*
X127660000Y-86875826D01*
X127694075Y-87002993D01*
X127726988Y-87060000D01*
X126832769Y-87060000D01*
X126843242Y-87126126D01*
X126843242Y-87126129D01*
X126908904Y-87328217D01*
X127005379Y-87517557D01*
X127130272Y-87689459D01*
X127130276Y-87689464D01*
X127243946Y-87803134D01*
X127258754Y-87830253D01*
X127275371Y-87856321D01*
X127275354Y-87860654D01*
X127277431Y-87864457D01*
X127275226Y-87895281D01*
X127275112Y-87926190D01*
X127272756Y-87929826D01*
X127272447Y-87934149D01*
X127253924Y-87958892D01*
X127237120Y-87984828D01*
X127232436Y-87987594D01*
X127230575Y-87990082D01*
X127207358Y-88003799D01*
X127202746Y-88005884D01*
X127202517Y-88005909D01*
X127067669Y-88056204D01*
X127031348Y-88083393D01*
X127018986Y-88088984D01*
X126997278Y-88092023D01*
X126982735Y-88097447D01*
X126850000Y-88100000D01*
X116114559Y-95256961D01*
X114281239Y-96479174D01*
X114214540Y-96499982D01*
X114212456Y-96500000D01*
X113879500Y-96500000D01*
X113812461Y-96480315D01*
X113766706Y-96427511D01*
X113755500Y-96376000D01*
X113755500Y-95324000D01*
X113775185Y-95256961D01*
X113827989Y-95211206D01*
X113879500Y-95200000D01*
X114300000Y-95200000D01*
X122950000Y-87400000D01*
X122950000Y-82500000D01*
X131900000Y-84550000D01*
G37*
%TD.AperFunction*%
%TA.AperFunction,Conductor*%
G36*
X130234075Y-86617007D02*
G01*
X130200000Y-86744174D01*
X130200000Y-86875826D01*
X130234075Y-87002993D01*
X130266988Y-87060000D01*
X128593012Y-87060000D01*
X128625925Y-87002993D01*
X128660000Y-86875826D01*
X128660000Y-86744174D01*
X128625925Y-86617007D01*
X128593012Y-86560000D01*
X130266988Y-86560000D01*
X130234075Y-86617007D01*
G37*
%TD.AperFunction*%
%TD*%
M02*
