M48
; DRILL file {KiCad 9.0.0} date 2025-03-09T23:13:40+0100
; FORMAT={-:-/ absolute / inch / decimal}
; #@! TF.CreationDate,2025-03-09T23:13:40+01:00
; #@! TF.GenerationSoftware,Kicad,Pcbnew,9.0.0
; #@! TF.FileFunction,Plated,1,4,PTH
FMAT,2
INCH
; #@! TA.AperFunction,Plated,PTH,ViaDrill
T1C0.0118
; #@! TA.AperFunction,Plated,PTH,ComponentDrill
T2C0.0197
; #@! TA.AperFunction,Plated,PTH,ComponentDrill
T3C0.0394
; #@! TA.AperFunction,Plated,PTH,ComponentDrill
T4C0.0512
; #@! TA.AperFunction,Plated,PTH,ComponentDrill
T5C0.0866
%
G90
G05
T1
X3.6417Y-3.2874
X3.6437Y-3.5689
X3.6496Y-4.0039
X3.6496Y-4.2362
X3.6811Y-5.126
X3.7382Y-3.2972
X3.7402Y-3.0217
X3.7402Y-3.0965
X3.7441Y-3.8091
X3.7913Y-2.8799
X3.8504Y-5.2441
X3.8937Y-2.748
X3.902Y-3.9839
X3.9134Y-3.3228
X3.9488Y-3.4902
X4.1358Y-3.1811
X4.1476Y-4.6417
X4.1909Y-3.8878
X4.2047Y-3.2441
X4.2047Y-3.4154
X4.2421Y-4.2165
X4.2579Y-3.813
X4.2835Y-4.7244
X4.2874Y-2.7421
X4.3214Y-4.6417
X4.3268Y-3.9094
X4.3287Y-3.5039
X4.3346Y-2.7657
X4.372Y-2.8878
X4.4193Y-2.9311
X4.4626Y-4.9921
X4.4744Y-5.3799
X4.5039Y-4.2165
X4.5059Y-4.0945
X4.5079Y-3.4882
X4.5295Y-4.4035
X4.5591Y-4.6752
X4.563Y-3.8917
X4.5866Y-4.1535
X4.6122Y-3.0433
X4.6417Y-3.1929
X4.6614Y-2.7244
X4.6614Y-3.4626
X4.7126Y-2.9744
X4.7126Y-3.1102
X4.7382Y-2.8091
X4.7638Y-4.8406
X4.8012Y-2.748
X4.8012Y-2.8701
X4.813Y-3.0433
X4.8169Y-4.9921
X4.8268Y-3.687
X4.8386Y-4.0571
X4.8839Y-4.4429
X4.9291Y-4.7323
X4.9528Y-4.8976
X5.0945Y-3.1161
X5.122Y-2.7992
X5.1516Y-4.7274
X5.2126Y-4.937
X5.2264Y-5.1043
X5.2421Y-5.3465
X5.2461Y-4.2992
X5.2972Y-3.1417
X5.3307Y-4.7274
X5.3386Y-2.7972
X5.3957Y-5.4291
X5.4173Y-3.1161
X5.4272Y-3.8071
X5.435Y-4.3937
X5.4882Y-5.3465
X5.4961Y-2.6693
X5.5118Y-2.9547
X5.5226Y-4.7274
X5.6161Y-3.876
X5.6398Y-2.8091
X5.6476Y-3.0433
X5.6496Y-5.4291
X5.6831Y-2.8898
X5.6831Y-2.9626
X5.7795Y-4.9409
X5.7825Y-4.7687
X5.7854Y-5.1083
X5.8524Y-3.002
X5.8996Y-2.7717
X5.9075Y-3.1063
X5.9193Y-2.6516
X5.9508Y-4.7323
X5.9508Y-4.9016
X5.9626Y-2.9252
X6.0059Y-3.2047
X6.0177Y-2.9094
X6.0256Y-5.1201
X6.0453Y-5.3484
X6.0492Y-4.3681
X6.0669Y-3.815
X6.1299Y-4.7288
X6.1516Y-5.4331
X6.2106Y-4.1909
X6.2323Y-2.8051
X6.2894Y-5.3504
X6.3228Y-4.7313
X6.3248Y-2.9843
X6.3248Y-3.065
X6.3248Y-3.1437
X6.3976Y-3.8661
X6.4173Y-4.4331
X6.4252Y-5.4252
X6.5276Y-2.6713
X6.5827Y-4.7717
X6.5827Y-4.9409
X6.5827Y-5.1083
X6.5925Y-2.8189
X6.6929Y-2.9862
X6.6929Y-3.065
X6.6929Y-3.1437
X6.7697Y-4.2283
X6.7835Y-3.6496
X6.7992Y-2.8386
X6.8661Y-3.185
X6.8917Y-4.8425
X6.939Y-4.9862
X6.9843Y-3.8898
X6.998Y-4.6102
X7.065Y-4.8937
X7.0669Y-2.6831
X7.0866Y-4.2343
X7.1791Y-4.8091
X7.1988Y-5.2303
X7.3543Y-3.4606
X7.3543Y-5.0157
X7.3583Y-3.7343
X7.3583Y-4.622
X7.3622Y-4.0571
X7.3622Y-4.315
T3
X5.0457Y-3.4177
X5.0457Y-3.5177
X5.1457Y-3.4177
X5.1457Y-3.5177
X5.2457Y-3.4177
X5.2457Y-3.5177
X5.3457Y-3.4177
X5.3457Y-3.5177
X5.4457Y-3.4177
X5.4457Y-3.5177
X5.5457Y-3.4177
X5.5457Y-3.5177
X5.6457Y-3.4177
X5.6457Y-3.5177
X5.7457Y-3.4177
X5.7457Y-3.5177
X5.8457Y-3.4177
X5.8457Y-3.5177
X5.9457Y-3.4177
X5.9457Y-3.5177
X6.0457Y-3.4177
X6.0457Y-3.5177
X6.1457Y-3.4177
X6.1457Y-3.5177
X6.2457Y-3.4177
X6.2457Y-3.5177
X6.3457Y-3.4177
X6.3457Y-3.5177
X6.4457Y-3.4177
X6.4457Y-3.5177
X6.5457Y-3.4177
X6.5457Y-3.5177
X6.6457Y-3.4177
X6.6457Y-3.5177
X6.7457Y-3.4177
X6.7457Y-3.5177
X6.8457Y-3.4177
X6.8457Y-3.5177
X6.9457Y-3.4177
X6.9457Y-3.5177
T4
X4.0354Y-5.2802
X4.2323Y-5.2802
X4.689Y-5.2802
X4.8858Y-5.2802
X6.8169Y-5.2802
X7.0138Y-5.2802
X7.2212Y-2.9685
X7.2212Y-3.1654
T5
X3.7106Y-2.7421
X3.7106Y-5.3465
X7.315Y-2.7421
X7.315Y-5.3465
T2
G00X5.0602Y-2.713
M15
G01X5.0602Y-2.6854
M16
G05
G00X5.0602Y-2.8626
M15
G01X5.0602Y-2.835
M16
G05
G00X5.4004Y-2.713
M15
G01X5.4004Y-2.6854
M16
G05
G00X5.4004Y-2.8626
M15
G01X5.4004Y-2.835
M16
G05
M30
