%TF.GenerationSoftware,KiCad,Pcbnew,9.0.0*%
%TF.CreationDate,2025-03-09T23:13:35+01:00*%
%TF.ProjectId,hotline,686f746c-696e-4652-9e6b-696361645f70,rev?*%
%TF.SameCoordinates,Original*%
%TF.FileFunction,Soldermask,Top*%
%TF.FilePolarity,Negative*%
%FSLAX46Y46*%
G04 Gerber Fmt 4.6, Leading zero omitted, Abs format (unit mm)*
G04 Created by KiCad (PCBNEW 9.0.0) date 2025-03-09 23:13:35*
%MOMM*%
%LPD*%
G01*
G04 APERTURE LIST*
G04 Aperture macros list*
%AMRoundRect*
0 Rectangle with rounded corners*
0 $1 Rounding radius*
0 $2 $3 $4 $5 $6 $7 $8 $9 X,Y pos of 4 corners*
0 Add a 4 corners polygon primitive as box body*
4,1,4,$2,$3,$4,$5,$6,$7,$8,$9,$2,$3,0*
0 Add four circle primitives for the rounded corners*
1,1,$1+$1,$2,$3*
1,1,$1+$1,$4,$5*
1,1,$1+$1,$6,$7*
1,1,$1+$1,$8,$9*
0 Add four rect primitives between the rounded corners*
20,1,$1+$1,$2,$3,$4,$5,0*
20,1,$1+$1,$4,$5,$6,$7,0*
20,1,$1+$1,$6,$7,$8,$9,0*
20,1,$1+$1,$8,$9,$2,$3,0*%
%AMFreePoly0*
4,1,23,0.500000,-0.750000,0.000000,-0.750000,0.000000,-0.745722,-0.065263,-0.745722,-0.191342,-0.711940,-0.304381,-0.646677,-0.396677,-0.554381,-0.461940,-0.441342,-0.495722,-0.315263,-0.495722,-0.250000,-0.500000,-0.250000,-0.500000,0.250000,-0.495722,0.250000,-0.495722,0.315263,-0.461940,0.441342,-0.396677,0.554381,-0.304381,0.646677,-0.191342,0.711940,-0.065263,0.745722,0.000000,0.745722,
0.000000,0.750000,0.500000,0.750000,0.500000,-0.750000,0.500000,-0.750000,$1*%
%AMFreePoly1*
4,1,23,0.000000,0.745722,0.065263,0.745722,0.191342,0.711940,0.304381,0.646677,0.396677,0.554381,0.461940,0.441342,0.495722,0.315263,0.495722,0.250000,0.500000,0.250000,0.500000,-0.250000,0.495722,-0.250000,0.495722,-0.315263,0.461940,-0.441342,0.396677,-0.554381,0.304381,-0.646677,0.191342,-0.711940,0.065263,-0.745722,0.000000,-0.745722,0.000000,-0.750000,-0.500000,-0.750000,
-0.500000,0.750000,0.000000,0.750000,0.000000,0.745722,0.000000,0.745722,$1*%
G04 Aperture macros list end*
%ADD10RoundRect,0.237500X-0.237500X0.250000X-0.237500X-0.250000X0.237500X-0.250000X0.237500X0.250000X0*%
%ADD11RoundRect,0.237500X-0.250000X-0.237500X0.250000X-0.237500X0.250000X0.237500X-0.250000X0.237500X0*%
%ADD12C,3.500000*%
%ADD13RoundRect,0.175000X0.175000X0.625000X-0.175000X0.625000X-0.175000X-0.625000X0.175000X-0.625000X0*%
%ADD14RoundRect,0.200000X0.200000X0.600000X-0.200000X0.600000X-0.200000X-0.600000X0.200000X-0.600000X0*%
%ADD15RoundRect,0.225000X0.225000X0.575000X-0.225000X0.575000X-0.225000X-0.575000X0.225000X-0.575000X0*%
%ADD16O,1.000000X1.700000*%
%ADD17RoundRect,0.150000X-0.587500X-0.150000X0.587500X-0.150000X0.587500X0.150000X-0.587500X0.150000X0*%
%ADD18RoundRect,0.237500X0.300000X0.237500X-0.300000X0.237500X-0.300000X-0.237500X0.300000X-0.237500X0*%
%ADD19RoundRect,0.237500X0.237500X-0.300000X0.237500X0.300000X-0.237500X0.300000X-0.237500X-0.300000X0*%
%ADD20RoundRect,0.250000X1.050000X0.550000X-1.050000X0.550000X-1.050000X-0.550000X1.050000X-0.550000X0*%
%ADD21RoundRect,0.237500X0.237500X-0.250000X0.237500X0.250000X-0.237500X0.250000X-0.237500X-0.250000X0*%
%ADD22FreePoly0,270.000000*%
%ADD23FreePoly1,270.000000*%
%ADD24RoundRect,0.237500X-0.300000X-0.237500X0.300000X-0.237500X0.300000X0.237500X-0.300000X0.237500X0*%
%ADD25RoundRect,0.250000X-1.050000X-1.050000X1.050000X-1.050000X1.050000X1.050000X-1.050000X1.050000X0*%
%ADD26C,2.600000*%
%ADD27RoundRect,0.237500X0.250000X0.237500X-0.250000X0.237500X-0.250000X-0.237500X0.250000X-0.237500X0*%
%ADD28FreePoly0,0.000000*%
%ADD29FreePoly1,0.000000*%
%ADD30RoundRect,0.250000X1.250000X0.550000X-1.250000X0.550000X-1.250000X-0.550000X1.250000X-0.550000X0*%
%ADD31FreePoly0,90.000000*%
%ADD32FreePoly1,90.000000*%
%ADD33RoundRect,0.250000X-1.050000X-0.550000X1.050000X-0.550000X1.050000X0.550000X-1.050000X0.550000X0*%
%ADD34RoundRect,0.100000X-0.100000X0.650000X-0.100000X-0.650000X0.100000X-0.650000X0.100000X0.650000X0*%
%ADD35RoundRect,0.250000X1.500000X0.550000X-1.500000X0.550000X-1.500000X-0.550000X1.500000X-0.550000X0*%
%ADD36RoundRect,0.150000X-0.150000X0.587500X-0.150000X-0.587500X0.150000X-0.587500X0.150000X0.587500X0*%
%ADD37R,1.700000X1.700000*%
%ADD38O,1.700000X1.700000*%
%ADD39RoundRect,0.250000X-0.475000X0.337500X-0.475000X-0.337500X0.475000X-0.337500X0.475000X0.337500X0*%
%ADD40RoundRect,0.100000X-0.225000X-0.100000X0.225000X-0.100000X0.225000X0.100000X-0.225000X0.100000X0*%
%ADD41RoundRect,0.150000X-0.150000X0.512500X-0.150000X-0.512500X0.150000X-0.512500X0.150000X0.512500X0*%
%ADD42RoundRect,0.250000X0.337500X0.475000X-0.337500X0.475000X-0.337500X-0.475000X0.337500X-0.475000X0*%
%ADD43RoundRect,0.200000X-0.200000X-0.600000X0.200000X-0.600000X0.200000X0.600000X-0.200000X0.600000X0*%
%ADD44RoundRect,0.250001X-0.799999X-1.249999X0.799999X-1.249999X0.799999X1.249999X-0.799999X1.249999X0*%
%ADD45RoundRect,0.150000X0.150000X-0.825000X0.150000X0.825000X-0.150000X0.825000X-0.150000X-0.825000X0*%
%ADD46RoundRect,0.250000X1.050000X-1.050000X1.050000X1.050000X-1.050000X1.050000X-1.050000X-1.050000X0*%
%ADD47RoundRect,0.237500X0.287500X0.237500X-0.287500X0.237500X-0.287500X-0.237500X0.287500X-0.237500X0*%
%ADD48RoundRect,0.250000X-1.000000X1.500000X-1.000000X-1.500000X1.000000X-1.500000X1.000000X1.500000X0*%
%ADD49RoundRect,0.100000X-0.637500X-0.100000X0.637500X-0.100000X0.637500X0.100000X-0.637500X0.100000X0*%
%ADD50RoundRect,0.150000X0.587500X0.150000X-0.587500X0.150000X-0.587500X-0.150000X0.587500X-0.150000X0*%
G04 APERTURE END LIST*
%TO.C,JP4*%
G36*
X109550000Y-122000000D02*
G01*
X108050000Y-122000000D01*
X108050000Y-122300000D01*
X109550000Y-122300000D01*
X109550000Y-122000000D01*
G37*
%TO.C,JP2*%
G36*
X113250000Y-95100000D02*
G01*
X113550000Y-95100000D01*
X113550000Y-96600000D01*
X113250000Y-96600000D01*
X113250000Y-95100000D01*
G37*
%TO.C,JP3*%
G36*
X103350000Y-110150000D02*
G01*
X104850000Y-110150000D01*
X104850000Y-109850000D01*
X103350000Y-109850000D01*
X103350000Y-110150000D01*
G37*
%TO.C,JP5*%
G36*
X105050000Y-122300000D02*
G01*
X106550000Y-122300000D01*
X106550000Y-122000000D01*
X105050000Y-122000000D01*
X105050000Y-122300000D01*
G37*
%TO.C,JP1*%
G36*
X113250000Y-98100000D02*
G01*
X113550000Y-98100000D01*
X113550000Y-99600000D01*
X113250000Y-99600000D01*
X113250000Y-98100000D01*
G37*
%TD*%
D10*
%TO.C,R2*%
X136450000Y-77337500D03*
X136450000Y-79162500D03*
%TD*%
D11*
%TO.C,R6*%
X161875000Y-79850000D03*
X163700000Y-79850000D03*
%TD*%
D12*
%TO.C,H4*%
X185800000Y-135800000D03*
%TD*%
D13*
%TO.C,J1*%
X133350000Y-72540000D03*
D14*
X131330000Y-72540000D03*
D15*
X130100000Y-72540000D03*
D13*
X132350000Y-72540000D03*
D14*
X134370000Y-72540000D03*
D15*
X135600000Y-72540000D03*
D16*
X137170000Y-72360000D03*
X137170000Y-68560000D03*
X128530000Y-72360000D03*
X128530000Y-68560000D03*
%TD*%
D17*
%TO.C,Q13*%
X135412500Y-119125000D03*
X135412500Y-121025000D03*
X137287500Y-120075000D03*
%TD*%
D18*
%TO.C,C21*%
X98110000Y-76747500D03*
X96385000Y-76747500D03*
%TD*%
D19*
%TO.C,C16*%
X109880000Y-102262500D03*
X109880000Y-100537500D03*
%TD*%
D20*
%TO.C,C8*%
X146825000Y-78800000D03*
X143225000Y-78800000D03*
%TD*%
D21*
%TO.C,R35*%
X137550000Y-129537500D03*
X137550000Y-127712500D03*
%TD*%
D17*
%TO.C,Q1*%
X160600000Y-119175000D03*
X160600000Y-121075000D03*
X162475000Y-120125000D03*
%TD*%
D22*
%TO.C,JP4*%
X108800000Y-121500000D03*
D23*
X108800000Y-122800000D03*
%TD*%
D24*
%TO.C,C9*%
X173250000Y-126637500D03*
X174975000Y-126637500D03*
%TD*%
D25*
%TO.C,SW1*%
X119100000Y-134117500D03*
D26*
X124100000Y-134117500D03*
%TD*%
D21*
%TO.C,R30*%
X162850000Y-129600000D03*
X162850000Y-127775000D03*
%TD*%
D24*
%TO.C,C10*%
X162387500Y-71450000D03*
X164112500Y-71450000D03*
%TD*%
D25*
%TO.C,SW2*%
X173150000Y-134117500D03*
D26*
X178150000Y-134117500D03*
%TD*%
D12*
%TO.C,H3*%
X94250000Y-135800000D03*
%TD*%
D11*
%TO.C,R14*%
X111275000Y-70275000D03*
X113100000Y-70275000D03*
%TD*%
D27*
%TO.C,R22*%
X98180000Y-78692500D03*
X96355000Y-78692500D03*
%TD*%
D12*
%TO.C,H2*%
X94250000Y-69650000D03*
%TD*%
D21*
%TO.C,R36*%
X140050000Y-129537500D03*
X140050000Y-127712500D03*
%TD*%
%TO.C,R8*%
X178050000Y-126550000D03*
X178050000Y-124725000D03*
%TD*%
D11*
%TO.C,R19*%
X109687500Y-114850000D03*
X111512500Y-114850000D03*
%TD*%
D21*
%TO.C,R29*%
X162850000Y-125350000D03*
X162850000Y-123525000D03*
%TD*%
%TO.C,R27*%
X157850000Y-129600000D03*
X157850000Y-127775000D03*
%TD*%
D28*
%TO.C,JP2*%
X112750000Y-95850000D03*
D29*
X114050000Y-95850000D03*
%TD*%
D17*
%TO.C,Q14*%
X144862500Y-119125000D03*
X144862500Y-121025000D03*
X146737500Y-120075000D03*
%TD*%
D21*
%TO.C,R33*%
X135050000Y-125287500D03*
X135050000Y-123462500D03*
%TD*%
D27*
%TO.C,R41*%
X108612500Y-78770000D03*
X106787500Y-78770000D03*
%TD*%
D30*
%TO.C,C13*%
X99500000Y-95050000D03*
X95100000Y-95050000D03*
%TD*%
D24*
%TO.C,C20*%
X103625000Y-116700000D03*
X105350000Y-116700000D03*
%TD*%
D18*
%TO.C,C4*%
X151587500Y-71600000D03*
X149862500Y-71600000D03*
%TD*%
%TO.C,C19*%
X111462500Y-116700000D03*
X109737500Y-116700000D03*
%TD*%
D31*
%TO.C,JP3*%
X104100000Y-110650000D03*
D32*
X104100000Y-109350000D03*
%TD*%
D33*
%TO.C,C2*%
X154675000Y-69750000D03*
X158275000Y-69750000D03*
%TD*%
D34*
%TO.C,U3*%
X112925000Y-75750000D03*
X112275000Y-75750000D03*
X111625000Y-75750000D03*
X111625000Y-78410000D03*
X112275000Y-78410000D03*
X112925000Y-78410000D03*
%TD*%
D11*
%TO.C,R7*%
X166875000Y-79850000D03*
X168700000Y-79850000D03*
%TD*%
D21*
%TO.C,R13*%
X170675000Y-73412500D03*
X170675000Y-71587500D03*
%TD*%
%TO.C,R24*%
X155350000Y-129600000D03*
X155350000Y-127775000D03*
%TD*%
D27*
%TO.C,R3*%
X121025000Y-124737500D03*
X119200000Y-124737500D03*
%TD*%
D21*
%TO.C,R23*%
X160350000Y-125350000D03*
X160350000Y-123525000D03*
%TD*%
D35*
%TO.C,C1*%
X125100000Y-77300000D03*
X119700000Y-77300000D03*
%TD*%
D36*
%TO.C,D4*%
X98300000Y-83725000D03*
X96400000Y-83725000D03*
X97350000Y-85600000D03*
%TD*%
D17*
%TO.C,Q10*%
X130862500Y-127725000D03*
X130862500Y-129625000D03*
X132737500Y-128675000D03*
%TD*%
D24*
%TO.C,C7*%
X119250000Y-126787500D03*
X120975000Y-126787500D03*
%TD*%
D27*
%TO.C,R17*%
X113212500Y-80775000D03*
X111387500Y-80775000D03*
%TD*%
D17*
%TO.C,Q4*%
X151162500Y-119175000D03*
X151162500Y-121075000D03*
X153037500Y-120125000D03*
%TD*%
D18*
%TO.C,C14*%
X108562500Y-83575000D03*
X106837500Y-83575000D03*
%TD*%
D27*
%TO.C,R5*%
X175025000Y-124587500D03*
X173200000Y-124587500D03*
%TD*%
D31*
%TO.C,JP5*%
X105800000Y-122800000D03*
D32*
X105800000Y-121500000D03*
%TD*%
D17*
%TO.C,Q16*%
X144862500Y-127725000D03*
X144862500Y-129625000D03*
X146737500Y-128675000D03*
%TD*%
D18*
%TO.C,C5*%
X147237500Y-73400000D03*
X145512500Y-73400000D03*
%TD*%
D27*
%TO.C,R20*%
X105400000Y-114850000D03*
X103575000Y-114850000D03*
%TD*%
D11*
%TO.C,R10*%
X166875000Y-77850000D03*
X168700000Y-77850000D03*
%TD*%
D37*
%TO.C,J2*%
X128160000Y-89350000D03*
D38*
X128160000Y-86810000D03*
X130700000Y-89350000D03*
X130700000Y-86810000D03*
X133240000Y-89350000D03*
X133240000Y-86810000D03*
X135780000Y-89350000D03*
X135780000Y-86810000D03*
X138320000Y-89350000D03*
X138320000Y-86810000D03*
X140860000Y-89350000D03*
X140860000Y-86810000D03*
X143400000Y-89350000D03*
X143400000Y-86810000D03*
X145940000Y-89350000D03*
X145940000Y-86810000D03*
X148480000Y-89350000D03*
X148480000Y-86810000D03*
X151020000Y-89350000D03*
X151020000Y-86810000D03*
X153560000Y-89350000D03*
X153560000Y-86810000D03*
X156100000Y-89350000D03*
X156100000Y-86810000D03*
X158640000Y-89350000D03*
X158640000Y-86810000D03*
X161180000Y-89350000D03*
X161180000Y-86810000D03*
X163720000Y-89350000D03*
X163720000Y-86810000D03*
X166260000Y-89350000D03*
X166260000Y-86810000D03*
X168800000Y-89350000D03*
X168800000Y-86810000D03*
X171340000Y-89350000D03*
X171340000Y-86810000D03*
X173880000Y-89350000D03*
X173880000Y-86810000D03*
X176420000Y-89350000D03*
X176420000Y-86810000D03*
%TD*%
D12*
%TO.C,H1*%
X185800000Y-69650000D03*
%TD*%
D21*
%TO.C,R4*%
X124050000Y-126700000D03*
X124050000Y-124875000D03*
%TD*%
D36*
%TO.C,D3*%
X113200000Y-88987500D03*
X111300000Y-88987500D03*
X112250000Y-90862500D03*
%TD*%
D39*
%TO.C,C15*%
X112250000Y-84337500D03*
X112250000Y-86412500D03*
%TD*%
D27*
%TO.C,R40*%
X108612500Y-80780000D03*
X106787500Y-80780000D03*
%TD*%
D40*
%TO.C,U2*%
X174100000Y-72100000D03*
X174100000Y-72750000D03*
X174100000Y-73400000D03*
X176000000Y-73400000D03*
X176000000Y-72100000D03*
%TD*%
D11*
%TO.C,R21*%
X96305000Y-74852500D03*
X98130000Y-74852500D03*
%TD*%
D17*
%TO.C,Q8*%
X165162500Y-127775000D03*
X165162500Y-129675000D03*
X167037500Y-128725000D03*
%TD*%
D21*
%TO.C,R28*%
X160350000Y-129600000D03*
X160350000Y-127775000D03*
%TD*%
D17*
%TO.C,Q6*%
X165162500Y-119175000D03*
X165162500Y-121075000D03*
X167037500Y-120125000D03*
%TD*%
D41*
%TO.C,D2*%
X134450000Y-77325000D03*
X132550000Y-77325000D03*
X133500000Y-79600000D03*
%TD*%
D28*
%TO.C,JP1*%
X112750000Y-98850000D03*
D29*
X114050000Y-98850000D03*
%TD*%
D27*
%TO.C,R42*%
X108612500Y-76760000D03*
X106787500Y-76760000D03*
%TD*%
D21*
%TO.C,R34*%
X137550000Y-125287500D03*
X137550000Y-123462500D03*
%TD*%
D11*
%TO.C,R12*%
X166875000Y-75850000D03*
X168700000Y-75850000D03*
%TD*%
D27*
%TO.C,R18*%
X108575000Y-85525000D03*
X106750000Y-85525000D03*
%TD*%
D42*
%TO.C,C22*%
X98325000Y-81142500D03*
X96250000Y-81142500D03*
%TD*%
D43*
%TO.C,J3*%
X153475000Y-134375000D03*
X154725000Y-134375000D03*
X155975000Y-134375000D03*
X157225000Y-134375000D03*
X158475000Y-134375000D03*
X159725000Y-134375000D03*
X160975000Y-134375000D03*
X162225000Y-134375000D03*
X163475000Y-134375000D03*
X164725000Y-134375000D03*
D44*
X150925000Y-137275000D03*
X167275000Y-137275000D03*
%TD*%
D21*
%TO.C,R37*%
X142550000Y-125287500D03*
X142550000Y-123462500D03*
%TD*%
D25*
%TO.C,LS1*%
X102500000Y-134117500D03*
D26*
X107500000Y-134117500D03*
%TD*%
D45*
%TO.C,U5*%
X103925000Y-105415000D03*
X105195000Y-105415000D03*
X106465000Y-105415000D03*
X107735000Y-105415000D03*
X107735000Y-100465000D03*
X106465000Y-100465000D03*
X105195000Y-100465000D03*
X103925000Y-100465000D03*
%TD*%
D43*
%TO.C,J4*%
X133150000Y-134375000D03*
X134400000Y-134375000D03*
X135650000Y-134375000D03*
X136900000Y-134375000D03*
X138150000Y-134375000D03*
X139400000Y-134375000D03*
X140650000Y-134375000D03*
X141900000Y-134375000D03*
X143150000Y-134375000D03*
X144400000Y-134375000D03*
D44*
X130600000Y-137275000D03*
X146950000Y-137275000D03*
%TD*%
D21*
%TO.C,R38*%
X142550000Y-129537500D03*
X142550000Y-127712500D03*
%TD*%
D17*
%TO.C,Q3*%
X151162500Y-123525000D03*
X151162500Y-125425000D03*
X153037500Y-124475000D03*
%TD*%
D21*
%TO.C,R25*%
X155350000Y-125350000D03*
X155350000Y-123525000D03*
%TD*%
D17*
%TO.C,Q7*%
X165162500Y-123475000D03*
X165162500Y-125375000D03*
X167037500Y-124425000D03*
%TD*%
%TO.C,Q5*%
X155712500Y-119162500D03*
X155712500Y-121062500D03*
X157587500Y-120112500D03*
%TD*%
D46*
%TO.C,MK1*%
X183417500Y-80400000D03*
D26*
X183417500Y-75400000D03*
%TD*%
D17*
%TO.C,Q12*%
X130862500Y-119125000D03*
X130862500Y-121025000D03*
X132737500Y-120075000D03*
%TD*%
%TO.C,Q15*%
X144862500Y-123425000D03*
X144862500Y-125325000D03*
X146737500Y-124375000D03*
%TD*%
D21*
%TO.C,R26*%
X157850000Y-125350000D03*
X157850000Y-123525000D03*
%TD*%
D33*
%TO.C,C17*%
X110830000Y-105550000D03*
X114430000Y-105550000D03*
%TD*%
D20*
%TO.C,C3*%
X146825000Y-69800000D03*
X143225000Y-69800000D03*
%TD*%
D17*
%TO.C,Q2*%
X151162500Y-127725000D03*
X151162500Y-129625000D03*
X153037500Y-128675000D03*
%TD*%
D20*
%TO.C,C11*%
X99600000Y-104950000D03*
X96000000Y-104950000D03*
%TD*%
D21*
%TO.C,R32*%
X135050000Y-129537500D03*
X135050000Y-127712500D03*
%TD*%
D17*
%TO.C,Q11*%
X130862500Y-123425000D03*
X130862500Y-125325000D03*
X132737500Y-124375000D03*
%TD*%
D27*
%TO.C,R43*%
X108612500Y-74750000D03*
X106787500Y-74750000D03*
%TD*%
D10*
%TO.C,R39*%
X168700000Y-71600000D03*
X168700000Y-73425000D03*
%TD*%
D11*
%TO.C,R11*%
X161875000Y-75850000D03*
X163700000Y-75850000D03*
%TD*%
%TO.C,R9*%
X161875000Y-77850000D03*
X163700000Y-77850000D03*
%TD*%
D17*
%TO.C,Q9*%
X140312500Y-119125000D03*
X140312500Y-121025000D03*
X142187500Y-120075000D03*
%TD*%
D10*
%TO.C,R1*%
X130550000Y-77337500D03*
X130550000Y-79162500D03*
%TD*%
D27*
%TO.C,R15*%
X113100000Y-72225000D03*
X111275000Y-72225000D03*
%TD*%
D47*
%TO.C,D1*%
X123700000Y-71350000D03*
X121950000Y-71350000D03*
%TD*%
D18*
%TO.C,C6*%
X147237500Y-75250000D03*
X145512500Y-75250000D03*
%TD*%
D27*
%TO.C,R16*%
X107002500Y-96820000D03*
X105177500Y-96820000D03*
%TD*%
D48*
%TO.C,C18*%
X97400000Y-112650000D03*
X97400000Y-119150000D03*
%TD*%
D49*
%TO.C,U1*%
X150025000Y-73650000D03*
X150025000Y-74300000D03*
X150025000Y-74950000D03*
X150025000Y-75600000D03*
X150025000Y-76250000D03*
X150025000Y-76900000D03*
X150025000Y-77550000D03*
X155750000Y-77550000D03*
X155750000Y-76900000D03*
X155750000Y-76250000D03*
X155750000Y-75600000D03*
X155750000Y-74950000D03*
X155750000Y-74300000D03*
X155750000Y-73650000D03*
%TD*%
D50*
%TO.C,U4*%
X108587500Y-72500000D03*
X108587500Y-70600000D03*
X106712500Y-71550000D03*
%TD*%
D24*
%TO.C,C12*%
X96197500Y-101190000D03*
X97922500Y-101190000D03*
%TD*%
D21*
%TO.C,R31*%
X140050000Y-125287500D03*
X140050000Y-123462500D03*
%TD*%
M02*
