%TF.GenerationSoftware,KiCad,Pcbnew,9.0.0*%
%TF.CreationDate,2025-03-09T23:13:35+01:00*%
%TF.ProjectId,hotline,686f746c-696e-4652-9e6b-696361645f70,rev?*%
%TF.SameCoordinates,Original*%
%TF.FileFunction,Soldermask,Bot*%
%TF.FilePolarity,Negative*%
%FSLAX46Y46*%
G04 Gerber Fmt 4.6, Leading zero omitted, Abs format (unit mm)*
G04 Created by KiCad (PCBNEW 9.0.0) date 2025-03-09 23:13:35*
%MOMM*%
%LPD*%
G01*
G04 APERTURE LIST*
G04 Aperture macros list*
%AMRoundRect*
0 Rectangle with rounded corners*
0 $1 Rounding radius*
0 $2 $3 $4 $5 $6 $7 $8 $9 X,Y pos of 4 corners*
0 Add a 4 corners polygon primitive as box body*
4,1,4,$2,$3,$4,$5,$6,$7,$8,$9,$2,$3,0*
0 Add four circle primitives for the rounded corners*
1,1,$1+$1,$2,$3*
1,1,$1+$1,$4,$5*
1,1,$1+$1,$6,$7*
1,1,$1+$1,$8,$9*
0 Add four rect primitives between the rounded corners*
20,1,$1+$1,$2,$3,$4,$5,0*
20,1,$1+$1,$4,$5,$6,$7,0*
20,1,$1+$1,$6,$7,$8,$9,0*
20,1,$1+$1,$8,$9,$2,$3,0*%
G04 Aperture macros list end*
%ADD10C,3.500000*%
%ADD11O,1.000000X1.700000*%
%ADD12RoundRect,0.250000X-1.050000X-1.050000X1.050000X-1.050000X1.050000X1.050000X-1.050000X1.050000X0*%
%ADD13C,2.600000*%
%ADD14R,1.700000X1.700000*%
%ADD15O,1.700000X1.700000*%
%ADD16RoundRect,0.250000X1.050000X-1.050000X1.050000X1.050000X-1.050000X1.050000X-1.050000X-1.050000X0*%
G04 APERTURE END LIST*
D10*
%TO.C,H4*%
X185800000Y-135800000D03*
%TD*%
D11*
%TO.C,J1*%
X137170000Y-72360000D03*
X137170000Y-68560000D03*
X128530000Y-72360000D03*
X128530000Y-68560000D03*
%TD*%
D12*
%TO.C,SW1*%
X119100000Y-134117500D03*
D13*
X124100000Y-134117500D03*
%TD*%
D12*
%TO.C,SW2*%
X173150000Y-134117500D03*
D13*
X178150000Y-134117500D03*
%TD*%
D10*
%TO.C,H3*%
X94250000Y-135800000D03*
%TD*%
%TO.C,H2*%
X94250000Y-69650000D03*
%TD*%
D14*
%TO.C,J2*%
X128160000Y-89350000D03*
D15*
X128160000Y-86810000D03*
X130700000Y-89350000D03*
X130700000Y-86810000D03*
X133240000Y-89350000D03*
X133240000Y-86810000D03*
X135780000Y-89350000D03*
X135780000Y-86810000D03*
X138320000Y-89350000D03*
X138320000Y-86810000D03*
X140860000Y-89350000D03*
X140860000Y-86810000D03*
X143400000Y-89350000D03*
X143400000Y-86810000D03*
X145940000Y-89350000D03*
X145940000Y-86810000D03*
X148480000Y-89350000D03*
X148480000Y-86810000D03*
X151020000Y-89350000D03*
X151020000Y-86810000D03*
X153560000Y-89350000D03*
X153560000Y-86810000D03*
X156100000Y-89350000D03*
X156100000Y-86810000D03*
X158640000Y-89350000D03*
X158640000Y-86810000D03*
X161180000Y-89350000D03*
X161180000Y-86810000D03*
X163720000Y-89350000D03*
X163720000Y-86810000D03*
X166260000Y-89350000D03*
X166260000Y-86810000D03*
X168800000Y-89350000D03*
X168800000Y-86810000D03*
X171340000Y-89350000D03*
X171340000Y-86810000D03*
X173880000Y-89350000D03*
X173880000Y-86810000D03*
X176420000Y-89350000D03*
X176420000Y-86810000D03*
%TD*%
D10*
%TO.C,H1*%
X185800000Y-69650000D03*
%TD*%
D12*
%TO.C,LS1*%
X102500000Y-134117500D03*
D13*
X107500000Y-134117500D03*
%TD*%
D16*
%TO.C,MK1*%
X183417500Y-80400000D03*
D13*
X183417500Y-75400000D03*
%TD*%
M02*
